<?xml version="1.0" standalone="no"?>
<!DOCTYPE svg PUBLIC "-//W3C//DTD SVG 20010904//EN"
 "http://www.w3.org/TR/2001/REC-SVG-20010904/DTD/svg10.dtd">
<svg version="1.0" xmlns="http://www.w3.org/2000/svg"
 width="480.000000pt" height="72.000000pt" viewBox="0 0 480.000000 72.000000"
 preserveAspectRatio="xMidYMid meet">
<metadata>
Created by potrace 1.15, written by Peter Selinger 2001-2017
</metadata>
<g transform="translate(0.000000,72.000000) scale(0.100000,-0.100000)"
fill="#000000" stroke="none">
<path d="M100 650 c0 -5 6 -10 14 -10 8 0 17 -4 20 -8 6 -10 -22 -124 -59
-239 -21 -67 -30 -83 -45 -83 -11 0 -20 -7 -20 -15 0 -12 19 -15 109 -15 147
0 217 27 271 107 21 31 25 48 25 114 0 69 -3 80 -25 104 -44 47 -71 55 -185
55 -63 0 -105 -4 -105 -10z m189 -31 c89 -31 78 -213 -17 -275 -32 -22 -123
-41 -140 -30 -9 5 6 68 59 249 22 74 31 79 98 56z"/>
<path d="M2555 606 c-129 -56 -190 -230 -126 -359 27 -55 84 -102 145 -118 55
-15 183 -7 224 15 l32 17 0 82 c0 104 6 124 39 136 20 7 2 10 -74 10 -94 0
-98 -1 -73 -15 34 -18 40 -39 36 -134 l-3 -75 -44 -14 c-125 -39 -232 86 -218
256 13 162 155 245 261 153 18 -17 39 -43 46 -60 22 -53 33 -35 27 41 -7 77
-13 93 -28 67 -9 -15 -13 -16 -50 -2 -51 17 -154 18 -194 0z"/>
<path d="M3510 597 c-54 -28 -105 -92 -121 -150 -15 -57 -6 -154 19 -202 42
-83 113 -125 209 -125 107 0 188 63 220 169 33 115 -4 231 -95 296 -37 25 -54
30 -115 33 -61 3 -79 0 -117 -21z m176 -22 c59 -39 91 -191 64 -304 -35 -146
-185 -173 -250 -46 -22 43 -25 62 -25 150 0 88 3 105 25 145 42 75 120 98 186
55z"/>
<path d="M928 596 l32 -15 0 -211 0 -211 -32 -14 c-30 -13 -22 -14 111 -15
175 0 211 9 272 70 35 36 49 58 59 99 28 118 -13 232 -100 281 -42 23 -55 25
-210 28 -152 2 -162 1 -132 -12z m247 -25 c95 -43 139 -161 105 -283 -24 -84
-114 -146 -196 -133 l-44 6 0 209 c0 208 0 209 23 213 46 9 73 6 112 -12z"/>
<path d="M1440 597 l35 -12 3 -195 c1 -107 0 -205 -3 -217 -3 -15 -17 -26 -38
-32 -25 -7 -7 -9 78 -10 103 0 108 1 78 14 l-33 14 0 210 c0 204 1 211 21 222
31 16 85 2 109 -28 18 -24 20 -39 20 -207 0 -99 -4 -187 -9 -194 -4 -7 -21
-17 -37 -22 -21 -6 -4 -8 66 -9 86 0 92 1 60 12 l-35 12 -2 165 -3 165 33 -39
c206 -252 264 -320 275 -324 9 -3 12 46 12 220 0 123 4 229 9 236 4 7 21 17
37 22 21 6 4 8 -66 8 -77 0 -89 -2 -62 -9 18 -6 35 -15 38 -22 2 -7 3 -80 2
-162 l-3 -148 -138 171 -138 172 -172 -1 c-147 0 -167 -2 -137 -12z"/>
<path d="M2180 597 l35 -12 3 -195 c1 -107 0 -205 -3 -217 -3 -15 -17 -26 -38
-32 -25 -7 -7 -9 78 -10 103 0 108 1 78 14 l-33 14 0 211 0 211 33 14 c30 13
25 14 -78 14 -98 0 -106 -1 -75 -12z"/>
<path d="M2926 596 c40 -18 44 -39 44 -226 0 -187 -4 -208 -44 -226 -28 -12
-22 -13 79 -13 79 1 102 3 81 9 -16 5 -33 15 -37 22 -5 7 -9 52 -9 101 0 84 1
87 23 87 17 -1 39 -25 92 -101 39 -55 75 -105 82 -110 6 -6 40 -9 75 -7 l63 3
-36 16 c-35 16 -69 53 -143 156 l-37 52 34 14 c103 44 104 180 1 223 -23 10
-75 14 -166 14 -121 -1 -130 -2 -102 -14z m222 -29 c42 -34 48 -110 13 -151
-19 -22 -71 -46 -101 -46 -19 0 -20 6 -20 104 0 91 2 105 18 109 25 7 73 -1
90 -16z"/>
<path d="M3887 603 c46 -9 53 -35 53 -208 0 -176 8 -209 63 -249 24 -18 43
-21 117 -21 96 0 121 10 164 69 19 25 21 44 24 199 4 183 8 201 56 210 11 2
-22 5 -74 5 -86 1 -92 0 -60 -11 l35 -12 3 -167 c3 -204 -4 -228 -74 -259 -54
-24 -101 -20 -139 14 -32 28 -45 100 -45 257 0 126 10 160 50 171 14 4 -24 7
-85 7 -60 -1 -100 -3 -88 -5z"/>
<path d="M4418 595 l32 -14 0 -211 0 -211 -32 -14 c-31 -13 -26 -14 77 -14 79
1 102 3 81 9 -16 5 -33 15 -37 22 -5 7 -9 52 -9 101 l0 87 65 0 c77 0 118 18
140 60 22 43 19 112 -7 145 -35 45 -74 55 -215 55 -119 -1 -126 -2 -95 -15z
m214 -32 c23 -21 39 -77 31 -114 -6 -29 -54 -79 -76 -79 -7 0 -22 3 -34 6 -22
6 -23 11 -23 104 0 69 4 100 13 104 20 8 69 -3 89 -21z"/>
<path d="M430 471 c0 -5 4 -11 10 -13 14 -5 -34 -149 -54 -160 -9 -5 -25 -6
-36 -3 -51 16 -115 -60 -92 -110 19 -41 58 -54 137 -45 39 4 77 4 86 -1 10 -5
24 -2 37 7 13 9 23 11 27 4 3 -5 24 -10 46 -10 21 0 39 -4 39 -10 0 -5 -4 -10
-10 -10 -5 0 -10 -4 -10 -10 0 -5 14 -10 31 -10 24 0 30 4 25 15 -3 8 -1 15 4
15 20 0 50 41 50 69 0 39 -15 48 -81 49 l-57 0 5 -39 c4 -25 2 -39 -6 -39 -6
0 -11 17 -11 39 l0 39 -85 0 c-46 0 -87 -3 -90 -9 -4 -5 -17 -9 -31 -9 -24 0
-32 -14 -14 -25 20 -12 10 -35 -15 -35 -30 0 -48 30 -39 65 5 19 13 25 34 25
16 0 32 -4 35 -10 10 -16 22 -12 28 10 4 17 13 19 71 17 47 -2 66 1 66 9 0 7
-4 14 -8 16 -4 2 -2 25 6 53 l14 49 25 -62 c14 -34 31 -62 37 -62 7 0 23 37
36 83 23 84 34 106 46 94 9 -9 -33 -151 -46 -155 -6 -2 -10 -9 -10 -16 0 -16
83 -13 88 3 2 6 -3 11 -11 11 -13 0 -12 10 4 68 11 37 24 75 29 84 6 10 10 20
10 23 0 3 -31 5 -70 5 -62 0 -91 -11 -58 -22 10 -4 9 -16 -3 -54 l-15 -49 -23
63 -23 62 -64 0 c-35 0 -64 -4 -64 -9z"/>
<path d="M4647 252 c-23 -26 -22 -94 1 -115 26 -23 94 -22 115 1 23 26 22 94
-1 115 -26 23 -94 22 -115 -1z"/>
</g>
</svg>
