<?xml version="1.0" standalone="no"?>
<!DOCTYPE svg PUBLIC "-//W3C//DTD SVG 20010904//EN"
 "http://www.w3.org/TR/2001/REC-SVG-20010904/DTD/svg10.dtd">
<svg version="1.0" xmlns="http://www.w3.org/2000/svg"
 width="260.000000pt" height="100.000000pt" viewBox="0 0 260.000000 100.000000"
 preserveAspectRatio="xMidYMid meet">
<metadata>
Created by potrace 1.15, written by Peter Selinger 2001-2017
</metadata>
<g transform="translate(0.000000,100.000000) scale(0.100000,-0.100000)"
fill="#000000" stroke="none">
<path d="M472 955 c-6 -22 -19 -71 -28 -110 -9 -38 -20 -73 -24 -78 -3 -4 -22
12 -41 35 l-34 43 -5 -57 -5 -58 -100 60 c-54 32 -101 58 -103 56 -1 -2 25
-49 58 -105 l62 -102 38 35 c21 19 52 42 68 50 36 18 137 36 165 28 18 -5 19
-2 14 34 -4 21 -17 77 -30 124 l-24 85 -11 -40z"/>
<path d="M740 789 c-52 -32 -98 -59 -102 -59 -5 0 -8 26 -8 58 l-1 57 -39 -45
c-44 -49 -48 -60 -25 -60 26 0 94 -39 122 -70 14 -16 29 -27 33 -25 10 6 123
196 118 199 -1 2 -46 -23 -98 -55z"/>
<path d="M427 729 c-162 -39 -243 -203 -171 -347 41 -83 124 -132 224 -132 51
0 110 17 110 31 0 18 -48 33 -100 30 -67 -3 -113 23 -147 84 -31 55 -31 145 0
200 25 45 92 85 143 85 51 0 115 -40 141 -90 28 -52 31 -136 7 -186 -15 -31
-20 -34 -62 -34 -40 0 -44 -2 -32 -14 23 -22 451 -318 455 -314 2 2 -64 74
-146 160 l-150 158 18 32 c12 23 17 55 17 103 0 107 -41 173 -134 214 -56 24
-124 32 -173 20z"/>
<path d="M169 601 c24 -21 39 -41 35 -43 -5 -3 -53 -16 -106 -29 -54 -13 -98
-27 -98 -30 0 -5 188 -59 207 -59 4 0 7 25 6 55 -1 37 5 69 18 95 10 21 19 42
19 45 0 3 -28 5 -62 5 l-63 -1 44 -38z"/>
<path d="M1515 543 c-37 -20 -45 -31 -45 -64 0 -35 25 -55 107 -88 57 -24 68
-32 68 -52 0 -36 -54 -47 -125 -26 -30 9 -56 15 -58 13 -10 -11 13 -55 31 -60
51 -13 152 -6 184 14 86 52 62 110 -69 164 -69 29 -83 47 -49 66 27 14 66 13
106 -4 l35 -15 0 28 c0 17 -7 31 -16 35 -31 12 -139 5 -169 -11z"/>
<path d="M758 538 c8 -8 12 -46 12 -105 0 -103 11 -138 51 -159 32 -16 131
-19 159 -4 13 7 21 7 25 0 3 -5 44 -10 91 -10 79 0 85 1 79 19 -3 10 2 35 12
55 16 36 17 36 78 36 61 0 62 0 78 -36 10 -20 15 -45 12 -55 -6 -17 -1 -19 49
-19 52 0 70 10 46 25 -6 4 -40 65 -75 136 l-65 129 -45 0 c-31 0 -43 -4 -40
-12 7 -20 -118 -253 -135 -253 -12 0 -16 21 -18 119 -2 78 1 123 9 132 10 12
2 14 -47 14 -45 0 -55 -3 -46 -12 8 -8 12 -47 12 -109 0 -90 -2 -99 -22 -113
-29 -20 -87 -20 -116 0 -20 14 -22 23 -22 113 0 62 4 101 12 109 9 9 -1 12
-47 12 -46 0 -56 -3 -47 -12z"/>
<path d="M1836 536 c6 -15 -75 -183 -112 -233 -13 -17 -24 -34 -24 -37 0 -3
21 -6 46 -6 40 0 45 2 39 19 -3 10 2 35 12 55 17 36 17 36 80 36 l63 0 20 -39
c12 -25 16 -42 10 -46 -24 -15 -6 -25 45 -25 51 0 69 10 45 25 -6 4 -40 65
-75 136 l-65 129 -45 0 c-34 0 -43 -3 -39 -14z"/>
<path d="M2080 536 c8 -11 11 -54 8 -146 l-3 -130 49 0 c42 0 47 2 40 18 -5 9
-10 65 -12 125 l-3 107 35 0 c35 0 70 -23 63 -44 -3 -9 -51 -38 -82 -50 -13
-4 91 -116 129 -138 27 -16 86 -25 86 -14 0 2 -32 35 -70 72 l-70 67 30 15
c37 18 54 46 46 78 -10 39 -54 54 -162 54 -83 0 -95 -2 -84 -14z"/>
<path d="M166 391 l-39 -40 60 -3 60 -3 -58 -95 c-31 -52 -55 -97 -54 -99 2
-1 42 20 88 48 125 76 121 75 113 7 -3 -32 -3 -56 2 -54 10 4 82 83 82 90 0 3
-18 10 -41 17 -52 16 -117 75 -141 129 -10 23 -22 42 -26 42 -5 0 -25 -18 -46
-39z"/>
<path d="M571 255 c-18 -8 -58 -15 -87 -15 -43 0 -54 -3 -54 -16 0 -30 54
-224 60 -217 4 5 17 54 30 111 13 57 27 105 30 107 4 2 22 -11 40 -30 19 -19
37 -35 40 -35 10 0 -5 103 -15 106 -5 2 -25 -3 -44 -11z"/>
<path d="M897 233 c-3 -5 -5 -20 -5 -35 0 -26 2 -26 70 -27 61 0 69 2 64 16
-6 16 -6 16 11 0 26 -23 133 -22 133 1 0 13 2 13 18 0 9 -8 34 -16 55 -17 31
-1 37 2 37 19 0 22 -25 28 -33 8 -3 -8 -6 -6 -6 5 -1 11 6 17 19 17 11 0 20 4
20 9 0 6 -18 9 -40 8 -28 -1 -40 -6 -40 -17 -1 -13 -3 -13 -13 2 -18 23 -137
23 -137 -1 -1 -14 -2 -14 -14 2 -8 10 -27 17 -49 17 -29 0 -36 -4 -40 -22 l-4
-23 -2 23 c-1 15 -7 22 -20 22 -11 0 -22 -3 -24 -7z"/>
<path d="M1394 208 c8 -40 12 -44 30 -29 11 9 15 9 19 -1 4 -10 8 -10 16 2 8
11 13 12 19 3 9 -15 82 -14 82 0 0 5 6 4 14 -2 9 -7 40 -11 78 -9 63 3 63 3
63 33 0 25 -4 30 -27 33 -24 3 -28 0 -28 -22 0 -19 -5 -26 -18 -26 -13 0 -18
7 -18 22 1 19 -5 23 -41 26 -28 2 -43 -1 -43 -9 0 -8 -4 -8 -13 -1 -16 13 -59
12 -70 -3 -6 -7 -10 -6 -14 3 -7 17 -21 15 -26 -5 -4 -17 -5 -17 -6 0 0 9 -6
17 -12 17 -8 0 -9 -11 -5 -32z"/>
<path d="M1890 205 c0 -39 4 -42 28 -19 14 15 17 15 28 -1 18 -24 57 -15 65
15 l7 25 1 -27 c1 -17 7 -28 15 -28 8 0 17 12 19 28 l4 27 2 -27 c1 -26 4 -28
41 -28 31 0 40 4 40 18 1 16 1 16 14 0 19 -26 34 -22 39 10 l4 27 2 -27 c1
-35 21 -37 21 -3 0 14 5 25 10 25 6 0 10 -11 10 -24 0 -23 3 -24 75 -24 42 -1
75 3 75 8 0 6 -9 10 -20 10 -15 0 -20 7 -20 25 0 34 -20 32 -21 -2 l-1 -28
-11 28 c-14 35 -24 34 -41 -5 l-14 -33 -1 33 c-1 31 -2 32 -46 32 -35 0 -45
-4 -45 -17 0 -15 -2 -15 -19 1 -15 14 -36 17 -102 15 -46 -1 -90 -6 -96 -12
-9 -6 -13 -6 -13 2 0 6 -11 11 -25 11 -22 0 -25 -4 -25 -35z"/>
</g>
</svg>
