<?xml version="1.0" standalone="no"?>
<!DOCTYPE svg PUBLIC "-//W3C//DTD SVG 20010904//EN"
 "http://www.w3.org/TR/2001/REC-SVG-20010904/DTD/svg10.dtd">
<svg version="1.0" xmlns="http://www.w3.org/2000/svg"
 width="234.000000pt" height="50.000000pt" viewBox="0 0 234.000000 50.000000"
 preserveAspectRatio="xMidYMid meet">
<metadata>
Created by potrace 1.15, written by Peter Selinger 2001-2017
</metadata>
<g transform="translate(0.000000,50.000000) scale(0.100000,-0.100000)"
fill="#000000" stroke="none">
<path d="M0 488 c0 -13 33 -72 43 -76 4 -2 7 -10 7 -18 0 -8 5 -14 10 -14 6 0
10 -7 10 -15 0 -8 5 -15 10 -15 6 0 10 -3 9 -7 -2 -16 14 -53 22 -53 5 0 9 -7
9 -15 0 -8 5 -15 10 -15 6 0 10 -7 10 -16 0 -11 6 -14 20 -9 23 7 39 -20 23
-36 -11 -11 5 -59 19 -59 9 0 28 34 28 49 0 19 -20 12 -21 -6 0 -11 -3 -13 -6
-6 -2 7 3 23 11 35 9 12 16 28 16 35 0 19 -18 16 -23 -4 -4 -16 -5 -16 -6 1
-1 11 -6 16 -15 13 -10 -4 -12 0 -9 14 3 10 1 19 -5 19 -6 0 -13 -8 -15 -17
-4 -16 -5 -16 -6 -1 -2 28 21 32 39 8 l18 -23 11 21 c6 11 11 25 11 31 0 18
-18 12 -23 -6 -4 -16 -5 -16 -6 1 -1 11 -6 16 -15 13 -10 -4 -12 0 -9 14 3 10
1 19 -5 19 -6 0 -13 -8 -15 -17 -4 -16 -5 -16 -6 -1 -2 28 21 32 39 8 l18 -23
11 21 c6 11 11 25 11 31 0 18 -18 12 -23 -6 -4 -17 -5 -17 -6 0 0 9 -5 17 -11
17 -5 0 -10 7 -10 15 0 21 -18 19 -23 -2 -4 -16 -5 -16 -6 -1 -2 28 21 33 39
8 13 -18 19 -20 25 -9 5 7 4 14 -3 17 -7 2 -12 10 -12 18 0 8 -4 14 -10 14 -5
0 -10 7 -10 15 0 21 -18 19 -23 -2 -4 -16 -5 -16 -6 -1 0 9 3 20 9 23 15 9 12
25 -4 25 -8 0 -17 -8 -19 -17 -4 -16 -5 -16 -6 -1 -1 14 -12 17 -66 17 -38 0
-65 -5 -65 -11z"/>
<path d="M420 484 c0 -8 -4 -14 -10 -14 -5 0 -10 -6 -10 -14 0 -8 -6 -16 -12
-19 -10 -3 -10 -7 0 -20 8 -9 12 -22 9 -29 -4 -8 -6 -7 -6 5 -1 19 -21 24 -21
4 0 -7 7 -23 16 -35 8 -12 13 -28 11 -35 -3 -7 -6 -5 -6 6 -1 19 -21 24 -21 4
0 -7 7 -23 16 -35 8 -12 13 -28 11 -35 -3 -7 -6 -5 -6 6 -1 19 -21 24 -21 4 0
-7 7 -23 16 -35 8 -12 13 -28 11 -35 -3 -7 -6 -5 -6 6 -1 9 -5 17 -11 17 -13
0 -13 -16 0 -41 12 -21 30 -26 30 -8 0 6 9 23 20 39 18 25 18 40 -1 40 -4 0
-9 -6 -12 -12 -2 -7 -3 -6 -3 2 1 9 10 14 24 13 14 -2 22 3 22 12 0 8 5 15 10
15 6 0 10 7 10 15 0 8 3 15 8 15 4 0 16 20 27 45 11 25 23 45 28 45 4 0 7 7 7
15 0 8 5 15 10 15 6 0 10 7 10 15 0 8 5 15 10 15 6 0 10 7 10 15 0 13 -14 16
-85 14 -65 -1 -85 -5 -85 -15z"/>
<path d="M1960 367 c-95 -34 -108 -186 -20 -232 43 -22 122 -20 154 6 31 25
33 35 6 49 -16 8 -26 7 -42 -5 -51 -35 -118 0 -118 61 0 59 78 97 121 58 14
-13 20 -13 38 -2 25 15 23 26 -10 50 -32 24 -86 31 -129 15z"/>
<path d="M660 359 c0 -22 105 -239 115 -239 6 0 35 53 65 118 29 64 55 120 57
125 2 4 -10 7 -26 7 -29 0 -33 -5 -63 -72 l-32 -72 -33 72 c-28 62 -36 72 -58
72 -14 0 -25 -5 -25 -11z"/>
<path d="M920 245 l0 -125 100 0 100 0 0 25 c0 24 -2 25 -75 25 -73 0 -75 1
-75 25 0 24 3 25 56 25 54 0 55 0 52 28 -3 25 -7 27 -55 30 -45 3 -53 6 -53
23 0 17 7 19 75 19 73 0 75 1 75 25 l0 25 -100 0 -100 0 0 -125z"/>
<path d="M1150 245 l0 -125 30 0 c28 0 30 2 30 40 0 55 31 55 62 0 19 -34 28
-40 56 -40 38 0 39 5 8 50 l-24 35 24 22 c33 30 33 85 -1 118 -22 22 -32 25
-105 25 l-80 0 0 -125z"/>
<path d="M1431 253 c-28 -65 -51 -121 -51 -125 0 -5 13 -8 29 -8 21 0 32 6 36
20 9 30 104 30 112 0 4 -14 14 -20 34 -20 16 0 29 4 29 9 0 5 -23 61 -51 125
-37 84 -56 116 -69 116 -12 0 -31 -32 -69 -117z"/>
<path d="M1640 245 l0 -125 30 0 30 0 0 68 1 67 63 -67 c35 -38 69 -68 75 -68
7 0 11 40 11 125 l0 125 -25 0 c-24 0 -25 -2 -25 -67 l0 -67 -68 67 c-37 37
-73 67 -80 67 -9 0 -12 -33 -12 -125z"/>
<path d="M2140 245 l0 -125 100 0 100 0 0 25 c0 24 -2 25 -70 25 -68 0 -70 1
-70 25 0 23 3 25 50 25 49 0 50 1 50 30 0 29 -1 30 -50 30 -43 0 -50 3 -50 20
0 18 7 20 70 20 68 0 70 1 70 25 l0 25 -100 0 -100 0 0 -125z"/>
</g>
</svg>
