<?xml version="1.0" encoding="UTF-8" standalone="no"?>
<!-- Generator: Adobe Illustrator 15.0.0, SVG Export Plug-In . SVG Version: 6.00 Build 0)  -->

<svg
   xmlns:dc="http://purl.org/dc/elements/1.1/"
   xmlns:cc="http://creativecommons.org/ns#"
   xmlns:rdf="http://www.w3.org/1999/02/22-rdf-syntax-ns#"
   xmlns:svg="http://www.w3.org/2000/svg"
   xmlns="http://www.w3.org/2000/svg"
   xmlns:sodipodi="http://sodipodi.sourceforge.net/DTD/sodipodi-0.dtd"
   xmlns:inkscape="http://www.inkscape.org/namespaces/inkscape"
   version="1.1"
   id="Layer_1"
   x="0px"
   y="0px"
   width="307.118px"
   height="188.121px"
   viewBox="0 0 307.118 188.121"
   enable-background="new 0 0 307.118 188.121"
   xml:space="preserve"
   inkscape:version="0.91 r13725"
   sodipodi:docname="Ace_Hardware_Logo.svg"><metadata
     id="metadata37"><rdf:RDF><cc:Work
         rdf:about=""><dc:format>image/svg+xml</dc:format><dc:type
           rdf:resource="http://purl.org/dc/dcmitype/StillImage" /></cc:Work></rdf:RDF></metadata><defs
     id="defs35" /><sodipodi:namedview
     pagecolor="#ffffff"
     bordercolor="#666666"
     borderopacity="1"
     objecttolerance="10"
     gridtolerance="10"
     guidetolerance="10"
     inkscape:pageopacity="0"
     inkscape:pageshadow="2"
     inkscape:window-width="1600"
     inkscape:window-height="882"
     id="namedview33"
     showgrid="false"
     inkscape:zoom="2.4497476"
     inkscape:cx="157.06789"
     inkscape:cy="103.6442"
     inkscape:window-x="1600"
     inkscape:window-y="18"
     inkscape:window-maximized="1"
     inkscape:current-layer="Layer_1" /><g
     id="g3"><path
       fill="#010202"
       d="M6.667,186.924c0.065-0.248,1.854-9.915,3.976-21.479l3.858-21.028h5.097c2.804,0,5.098,0.068,5.098,0.156   s-0.678,3.805-1.507,8.259c-0.83,4.452-1.509,8.171-1.509,8.261c0,0.089,3.469,0.134,7.708,0.096l7.706-0.068l1.532-8.288   l1.531-8.292l5.082-0.068c2.796-0.038,5.083,0.027,5.083,0.146c0,0.2-7.376,40.573-7.686,42.067l-0.143,0.689h-5.135h-5.135   l0.133-0.565c0.258-1.09,3.142-16.884,3.142-17.2c0-0.255-1.604-0.32-7.657-0.32h-7.658l-0.127,0.565   c-0.249,1.115-3.149,17.02-3.149,17.267c0,0.164-1.854,0.254-5.179,0.254C6.873,187.374,6.556,187.345,6.667,186.924z"
       id="path5"
       style="fill:#ed1d2b;fill-opacity:1" /><path
       fill="#010202"
       d="M6.938,187.289c-0.311-0.051-0.349-0.104-0.292-0.395c0.037-0.185,1.806-9.819,3.934-21.408l3.869-21.069   h5.168h5.167l-0.114,0.594c-0.884,4.619-2.947,16.063-2.902,16.109c0.103,0.111,9.278,0.137,12.344,0.034l2.946-0.095l1.538-8.291   c0.845-4.56,1.54-8.305,1.542-8.324c0.005-0.017,2.325-0.027,5.159-0.027h5.153l-0.067,0.28c-0.036,0.155-1.789,9.694-3.894,21.198   c-2.105,11.501-3.858,21.04-3.895,21.195l-0.068,0.283h-5.147c-2.832,0-5.148-0.014-5.148-0.033c0-0.018,0.734-4.013,1.632-8.883   c1.119-6.083,1.589-8.888,1.5-8.979c-0.169-0.17-15.19-0.259-15.19-0.093c0,0.067-0.506,2.854-1.125,6.195   c-0.618,3.343-1.351,7.312-1.626,8.823c-0.277,1.514-0.539,2.785-0.581,2.83C16.746,187.323,7.471,187.378,6.938,187.289z"
       id="path7"
       style="fill:#ed1d2b;fill-opacity:1" /><path
       fill="#010202"
       d="M59.673,187.997c-4.032-0.527-7.225-2.931-8.257-6.214c-0.359-1.147-0.381-3.47-0.042-4.708   c0.903-3.291,3.702-5.914,7.885-7.389c3.139-1.11,8.508-1.981,13.765-2.238c1.16-0.055,1.834-0.138,1.917-0.238   c0.071-0.083,0.248-0.624,0.393-1.201c0.843-3.334-0.89-5.393-4.531-5.388c-2.797,0.006-4.78,1.017-6.151,3.137   c-0.276,0.424-0.564,0.965-0.643,1.205c-0.083,0.255-0.225,0.431-0.345,0.431c-0.439,0-8.886-0.903-8.939-0.958   c-0.03-0.028,0.264-0.688,0.657-1.466c2.305-4.562,6.309-7.129,12.392-7.949c1.774-0.239,5.619-0.269,7.357-0.056   c5.159,0.626,8.735,2.959,9.873,6.428c0.265,0.809,0.3,1.15,0.292,2.743c-0.008,2.04-0.151,3.007-1.68,11.235   c-1.266,6.813-1.323,7.223-1.324,9.71l-0.001,2.169h-4.795l-4.795,0.002l-0.091-0.85c-0.062-0.567-0.023-1.394,0.118-2.481   c0.287-2.253,0.283-2.269-0.328-1.254c-0.652,1.077-2.659,3.11-3.637,3.683C66.329,187.773,62.825,188.411,59.673,187.997z    M67.753,181.96c1.033-0.354,1.748-0.816,2.707-1.736c1.039-0.998,1.807-2.123,2.407-3.527c0.436-1.015,1.092-3.293,1.258-4.363   l0.083-0.535l-0.734,0.004c-1.985,0.006-5.031,0.488-6.85,1.088c-2.932,0.966-4.48,2.427-4.882,4.607   c-0.314,1.702,0.366,3.397,1.692,4.219C64.498,182.372,66.265,182.471,67.753,181.96z"
       id="path9"
       style="fill:#ed1d2b;fill-opacity:1" /><path
       fill="#010202"
       d="M90.113,186.715c0.058-0.294,1.353-7.349,2.874-15.67c1.522-8.326,2.795-15.266,2.831-15.42l0.064-0.283   h4.833c4.147,0,4.834,0.027,4.834,0.183c0,0.101-0.283,1.722-0.628,3.597c-0.346,1.883-0.627,3.453-0.627,3.493   c0,0.044,0.368-0.592,0.817-1.41c0.982-1.786,1.771-2.915,2.699-3.858c1.612-1.644,3.023-2.198,6.191-2.432l0.854-0.066   l-0.067,0.404c-0.036,0.223-0.267,2.185-0.511,4.359c-0.243,2.177-0.469,4.078-0.501,4.224c-0.053,0.242-0.168,0.271-1.348,0.338   c-3.082,0.172-5.242,1.378-6.974,3.89c-1.666,2.417-2.169,4.088-3.61,11.962c-0.454,2.488-0.937,5.105-1.073,5.815   c-0.136,0.713-0.247,1.321-0.247,1.353c0,0.03-2.368,0.059-5.261,0.059h-5.26L90.113,186.715z"
       id="path11"
       style="fill:#ed1d2b;fill-opacity:1" /><path
       fill="#010202"
       d="M124.639,187.82c-2.066-0.339-3.656-1.114-5.108-2.495c-2.578-2.449-3.803-5.857-3.804-10.579   c-0.001-4.014,0.817-7.536,2.584-11.098c3.249-6.557,7.762-9.442,13.955-8.918c2.16,0.182,3.797,0.872,5.06,2.133   c0.717,0.72,1.554,2.126,1.895,3.189c0.136,0.427,0.174,0.463,0.258,0.253c0.054-0.14,0.738-3.77,1.52-8.072l1.42-7.816h5.052   h5.053l-0.082,0.405c-0.044,0.228-1.813,9.849-3.932,21.388l-3.85,20.976l-4.732,0.032c-2.602,0.021-4.733,0.018-4.733-0.006   c0-0.025,0.196-1.109,0.436-2.414c0.239-1.304,0.417-2.391,0.396-2.411c-0.022-0.023-0.185,0.173-0.36,0.433   c-1.618,2.395-4.063,4.248-6.438,4.874C128.167,187.972,125.942,188.035,124.639,187.82z M131.736,181.277   c0.977-0.254,1.85-0.736,2.661-1.481c1.558-1.418,2.398-3.628,3.172-8.318c0.584-3.551,0.692-4.744,0.525-5.838   c-0.283-1.837-1.221-3.246-2.679-4.022c-0.658-0.352-0.951-0.427-1.802-0.472c-1.844-0.097-3.273,0.606-4.386,2.169   c-1.851,2.592-3.205,8.294-3.051,12.856c0.049,1.466,0.104,1.833,0.373,2.492c0.366,0.897,0.706,1.347,1.464,1.932   C129.08,181.416,130.328,181.643,131.736,181.277z"
       id="path13"
       style="fill:#ed1d2b;fill-opacity:1" /><path
       fill="#010202"
       d="M159.976,187.142c0-0.103-4.949-30.738-5.08-31.453l-0.063-0.347h5.195c4.842,0,5.196,0.016,5.252,0.221   c0.027,0.122,0.644,4.587,1.36,9.923c0.722,5.339,1.337,9.704,1.376,9.704s1.938-4.452,4.221-9.892l4.146-9.893l4.668-0.031   l4.668-0.032l0.062,0.283c0.033,0.154,0.489,4.495,1.011,9.642c0.524,5.146,0.982,9.493,1.02,9.659   c0.035,0.164,0.107,0.25,0.163,0.188c0.05-0.063,2.209-4.534,4.797-9.939l4.701-9.827h3.856l3.854-0.006l-1.549,3.172   c-0.853,1.745-4.411,8.923-7.908,15.952l-6.358,12.785h-4.52h-4.518l-0.063-0.284c-0.069-0.316-2.456-19.962-2.456-20.212   c0-0.097-0.041-0.111-0.11-0.04c-0.062,0.067-2.074,4.715-4.473,10.326l-4.357,10.21h-4.447   C161.978,187.251,159.976,187.201,159.976,187.142z"
       id="path15"
       style="fill:#ed1d2b;fill-opacity:1" /><path
       fill="#010202"
       d="M212.672,188.051c-2.981-0.456-4.896-1.349-6.622-3.093c-1.565-1.583-2.32-3.67-2.193-6.063   c0.256-4.819,3.887-8.244,10.51-9.922c2.988-0.758,9.398-1.571,12.39-1.571c0.739,0,0.806-0.026,0.966-0.349   c0.551-1.101,0.691-3.053,0.295-4.074c-0.338-0.877-1.383-1.781-2.426-2.106c-1.01-0.313-2.869-0.342-4.053-0.063   c-2.029,0.481-3.564,1.687-4.475,3.513c-0.275,0.555-0.51,1.027-0.521,1.049l-9.068-0.927c-0.108-0.111,0.741-1.85,1.404-2.865   c1.94-2.974,4.916-5.039,8.652-5.991c4.318-1.107,10.036-1.069,13.689,0.08c3.658,1.153,6.023,3.469,6.715,6.568   c0.394,1.775,0.183,3.463-1.755,14.021c-1.11,6.052-1.246,7.122-1.19,9.332l0.039,1.661h-4.791c-4.252,0-4.797-0.026-4.866-0.201   c-0.138-0.36-0.081-2.159,0.12-3.577c0.104-0.769,0.174-1.457,0.149-1.528c-0.022-0.073-0.267,0.261-0.538,0.735   c-0.66,1.146-2.496,2.993-3.647,3.671c-1.065,0.627-2.543,1.183-3.892,1.461C216.595,188.011,213.433,188.166,212.672,188.051z    M220.306,182.016c1.891-0.556,3.786-2.31,4.924-4.561c0.66-1.307,1.332-3.443,1.63-5.188l0.081-0.469h-0.684   c-1.966,0-5.324,0.535-7.061,1.125c-2.244,0.766-3.645,1.846-4.364,3.366c-0.36,0.758-0.399,0.963-0.399,1.98   c0.005,1.27,0.23,1.936,0.93,2.729C216.458,182.249,218.252,182.618,220.306,182.016z"
       id="path17"
       style="fill:#ed1d2b;fill-opacity:1" /><path
       fill="#010202"
       d="M242.812,186.78c0.049-0.262,1.367-7.427,2.931-15.922l2.837-15.452l4.862-0.031   c2.677-0.019,4.868,0,4.868,0.039c0,0.044-0.281,1.62-0.63,3.509c-0.347,1.887-0.626,3.508-0.624,3.604   c0,0.089,0.303-0.405,0.672-1.105c0.993-1.888,1.782-3.009,2.906-4.131c1.107-1.105,2.063-1.685,3.294-2.004   c0.755-0.193,3.431-0.47,3.546-0.362c0.053,0.046-0.797,7.879-0.953,8.783l-0.066,0.393l-1.344,0.077   c-1.515,0.087-2.503,0.319-3.597,0.844c-2.048,0.979-4.073,3.539-5.041,6.383c-0.644,1.88-1.079,4.002-3.031,14.748l-0.2,1.101   h-5.26h-5.259L242.812,186.78z"
       id="path19"
       style="fill:#ed1d2b;fill-opacity:1" /><path
       fill="#010202"
       d="M281.859,188.051c-2.376-0.262-4.229-0.797-6.09-1.761c-4.835-2.507-7.539-7.142-7.539-12.924   c0-5.279,2.144-10.191,6.112-14.013c3.287-3.165,7.223-4.645,12.355-4.657c4.945-0.01,8.379,1.278,11.11,4.176   c2.065,2.187,3.304,4.85,3.726,8.007c0.139,1.053,0.088,4.081-0.096,5.454l-0.076,0.595h-11.403h-11.402l-0.095,1.095   c-0.119,1.448,0,2.95,0.309,3.836c0.857,2.475,3.354,3.936,6.299,3.691c2.63-0.224,4.578-1.578,5.895-4.107l0.494-0.95l4.211,0.644   c2.314,0.35,4.232,0.666,4.266,0.698c0.117,0.118-0.832,1.966-1.609,3.126c-0.506,0.759-1.26,1.649-2.055,2.42   c-2.492,2.416-5.26,3.813-8.818,4.445C286.396,188.011,282.836,188.155,281.859,188.051z M292.146,167.371   c0.15-0.56,0.078-2.809-0.105-3.436c-0.621-2.086-2.67-3.442-5.205-3.442c-1.918,0-3.393,0.545-4.664,1.722   c-1.216,1.127-2.027,2.575-2.678,4.779l-0.192,0.661h6.384h6.384L292.146,167.371z"
       id="path21"
       style="fill:#ed1d2b;fill-opacity:1" /><path
       fill="#E73137"
       d="M107.704,75.175c-0.043,2.799-1.105,7.696,0.813,16.679c0,0,5.848,43.271,49.909,44.125   c12.672-0.867,18.02-3.278,24.542-6.47c24.479-11.98,28.55-38.823,28.55-38.823h-23.027c-13.322,30.07-39.204,19.979-39.204,19.979   l14.563-68.417c27.977,0.766,29.02,27.123,29.02,27.123h23.41c0,0,1.646-27.689-25.34-44.115c-5.53-3.363-14.646-5.73-23.569-5.939   C167.371,19.316,117.537,16.19,107.704,75.175"
       id="path23"
       style="fill:#ed1d2b;fill-opacity:1" /><polyline
       fill="#E73137"
       points="307.118,26.743 302.556,48.06 263.347,48.06 258.779,69.376 298.079,69.376 293.609,90.692    254.308,90.692 249.835,112.006 289.138,112.006 284.57,133.226 205.396,133.226 227.947,26.743 307.118,26.743  "
       id="polyline25"
       style="fill:#ed1d2b;fill-opacity:1" /><polyline
       fill="#E73137"
       points="58.045,133.413 45.295,65.468 0,133.413 58.045,133.413  "
       id="polyline27"
       style="fill:#ed1d2b;fill-opacity:1" /><polyline
       fill="#E73137"
       points="113.526,133.413 70.228,133.413 55.004,50.812 88.88,0 113.526,133.413  "
       id="polyline29"
       style="fill:#ed1d2b;fill-opacity:1" /><path
       fill="#E73137"
       d="M288.644,127.889c0-3.151,2.555-5.478,5.58-5.478c2.986,0,5.541,2.326,5.541,5.478   c0,3.18-2.555,5.502-5.541,5.502C291.198,133.391,288.644,131.069,288.644,127.889 M294.224,132.475   c2.479,0,4.439-1.944,4.439-4.586c0-2.604-1.96-4.562-4.439-4.562c-2.517,0-4.477,1.958-4.477,4.562   C289.747,130.531,291.707,132.475,294.224,132.475z M293.058,131.069h-0.959v-6.331h2.408c1.502,0,2.24,0.548,2.24,1.802   c0,1.132-0.714,1.621-1.64,1.737l1.799,2.792h-1.075l-1.669-2.741h-1.104V131.069z M294.206,127.509   c0.813,0,1.539-0.055,1.539-1.034c0-0.78-0.713-0.925-1.381-0.925h-1.307v1.959H294.206z"
       id="path31"
       style="fill:#ed1d2b;fill-opacity:1" /></g></svg>