<?xml version="1.0" standalone="yes"?>
<svg width="2100" height="1500">
<path style="fill:#ffffff; stroke:none;" d="M0 0L0 1500L2100 1500L2100 0L0 0z"/>
<path style="fill:#ed1d2b; stroke:none;" d="M323 56L342 56C374.016 56 423.153 59.9362 430.385 99C435.308 125.594 428.614 155.019 422.651 181C412.067 227.119 397.313 272.683 383.72 318C337.154 473.239 292.882 629.266 248 785C236.668 824.32 226.165 864.601 209.306 902C199.502 923.746 186.59 944.898 165 956.688C138.736 971.029 105.999 970 77 970C75.2544 978.434 72.6223 986.799 70 995L390 995C443.625 995 497.552 996.571 551 992.911C646.521 986.369 743.044 964.169 829 921.191C885.253 893.065 938.428 855.527 981.961 810C1076.48 711.151 1130.99 581.246 1136.96 445C1137.94 422.532 1135.56 399.32 1133.17 377C1127.86 327.472 1114.55 278.605 1092.25 234C1074.64 198.785 1050.91 168.586 1023 141.004C999.191 117.478 969.82 98.6631 940 83.7531C871.685 49.5956 796.538 36.2632 721 31.0895C680.911 28.3438 640.212 30 600 30L501 30L380 30L346 30C341.753 30 335.204 28.7822 331.279 30.6034C328.805 31.7507 328.275 34.6342 327.579 37.0007C325.767 43.1685 323.559 49.5867 323 56z"/>
<path style="fill:#ffffff; stroke:none;" d="M625 81.4244C614.726 82.7733 603.36 82.9487 593 82.9993C588.638 83.0205 581.378 82.1077 577.703 85.0131C573.814 88.0879 573.079 97.4506 571.659 102C566.493 118.551 561.888 135.323 557.14 152C539.652 213.437 521.093 274.57 503.579 336C461.984 481.892 418.06 627.119 376.421 773C366.296 808.475 355.525 843.955 347.576 880C344.228 895.179 339.998 914.281 349.789 928C360.839 943.481 382.481 946.417 400 948.169C444.3 952.599 490.751 951.112 535 946.83C648.631 935.834 763.208 896.83 844.985 813.996C877.658 780.902 904.554 742.332 925.741 701C947.974 657.627 962.171 610.438 972.576 563C980.552 526.635 984.416 489.08 986.039 452C990.436 351.588 983.077 234.631 905.996 160.039C889.713 144.282 870.9 131.073 851 120.309C815.488 101.101 775.69 91.3998 736 85.7291C710.497 82.0854 684.734 81 659 81C647.832 81 636.08 79.9697 625 81.4244z"/>
<path style="fill:#ed1d2b; stroke:none;" d="M1186 526C1204.71 526 1235.17 524.227 1240.33 548C1242.9 559.825 1239.56 573.377 1237.2 585C1231.57 612.696 1221.82 639.856 1214 667C1197.95 722.706 1181.32 778.25 1165.42 834C1154.72 871.523 1145.95 911.073 1130.57 947C1124.44 961.326 1115.44 974.442 1100 979.48C1092.82 981.823 1084.54 982.907 1077 982.996C1073.53 983.037 1067.53 981.85 1064.56 984.028C1061.55 986.24 1060.96 992.604 1060 996L1251 996L1254 983C1235.28 983 1203.15 982.8 1198.31 959C1195.62 945.712 1200.64 930.723 1204.29 918L1222.58 854C1242.26 784.977 1262.29 716.055 1281.86 647L1297.58 592C1302.05 576.309 1306.67 559.795 1317.33 547C1332.05 529.323 1349.22 526 1371 526C1386.64 526 1402.04 528.367 1416 535.782C1424.7 540.403 1431.95 547.183 1437.87 555C1440.08 557.919 1443.09 561.253 1443.67 565C1444.35 569.409 1441.77 574.813 1440.58 579L1432.42 608C1422.55 642.648 1412.94 677.369 1403 712C1389.53 758.932 1376.78 806.072 1363.29 853C1356.19 877.699 1349.8 902.614 1341.67 927C1337.04 940.872 1332.43 955.724 1322.7 966.996C1313.07 978.147 1299.96 981.062 1286 982.714C1281.2 983.282 1272.57 981.152 1268.51 984.028C1265.43 986.213 1264.79 992.557 1264 996L1383 996L1407 996C1409.92 996 1414.8 996.889 1417.27 994.972C1420.23 992.676 1420.7 986.433 1421 983C1401.58 983 1370.1 982.522 1365.47 958C1363.02 945.032 1368.06 930.351 1371.58 918L1390.86 850C1414.37 767.039 1437.62 684 1461 601L1463 601C1468.65 621.667 1478.64 642.092 1486.6 662C1499.49 694.244 1511.71 726.755 1524.6 759C1538.81 794.555 1552.19 830.445 1566.4 866C1580.6 901.533 1595.04 937.114 1608.32 973C1611.42 981.387 1614.91 989.625 1618.05 998C1619.45 1001.74 1620.57 1006.11 1625.04 1006.85C1627.45 1007.25 1631.4 1007.45 1633.49 1005.97C1635.81 1004.32 1636.27 1000.55 1637 998C1638.82 991.682 1640.47 985.32 1642.29 979L1670.29 881C1695.27 794.065 1719.78 706.988 1744.58 620C1753.33 589.29 1759.57 544.588 1793 530.464C1805.61 525.135 1818.62 526 1832 526L1835 513L1679 513L1676 526C1693.42 526 1722.09 524.122 1728.78 545C1731.95 554.915 1729.77 566.992 1728.08 577C1724.07 600.743 1715.76 623.898 1709.14 647C1692.99 703.358 1676.87 759.727 1660.42 816C1653.23 840.635 1646.82 865.554 1639 890L1637 890C1627.84 861.893 1615.49 834.568 1604.81 807C1580.27 743.634 1554.27 680.726 1530.68 617C1521.25 591.516 1511.06 566.242 1501 541L1493.6 522C1492.6 519.487 1491.83 515.669 1489.49 514.028C1485.58 511.289 1476.59 513 1472 513L1426 513L1252 513L1207 513C1202.79 513 1194.22 511.374 1190.7 514.028C1187.71 516.283 1187.09 522.595 1186 526M1835 526C1856.08 526 1886.19 524.913 1889.71 552C1891.78 567.928 1886.07 586.812 1881.71 602C1874.72 626.363 1867.53 650.672 1860.42 675C1843.68 732.311 1827.17 789.69 1810.42 847C1800.16 882.146 1792.49 919.824 1776.68 953C1774.16 958.283 1770.74 963.637 1766.82 967.985C1752.9 983.403 1731.09 983 1712 983C1711.4 987.44 1710 991.644 1709 996L1855 996L1886 996C1889.5 996 1895.47 997.112 1898.49 994.972C1901.57 992.788 1902.21 986.443 1903 983C1881.2 983 1849.58 981.767 1846.29 954C1844.97 942.839 1849.96 929.657 1852.85 919C1859.19 895.58 1866.24 872.347 1872.86 849C1891.49 783.281 1910.43 717.65 1929.29 652C1934.75 633.008 1940.16 614.003 1945.58 595C1949.68 580.599 1953.47 565.731 1961.7 553C1970.98 538.628 1984.82 528.522 2002 526.289C2009.83 525.272 2018.11 526 2026 526L2029 513L1883 513L1852 513C1848.56 513 1842.5 511.868 1839.56 514.028C1836.55 516.24 1835.96 522.604 1835 526M1087 1181L1087 1172L950 1172L950 1181C962.479 1181 977.607 1180.15 987.996 1188.39C997.929 1196.27 998.999 1209.21 999 1221L999 1281L999 1317C999 1321.37 1000.22 1327.98 997.397 1331.67C993.995 1336.11 986.951 1338.16 982 1340.28C966.052 1347.1 946.389 1351.2 929 1350.74C915.479 1350.38 901.852 1348.35 889 1344C820.849 1320.92 795 1245.67 795 1180C795 1163.46 796.621 1147.1 800.627 1131C809.866 1093.87 829.347 1059.47 863 1039.45C905.343 1014.26 971.774 1019.63 1005.57 1057.04C1016.93 1069.61 1025.14 1083.45 1031.72 1099C1033.53 1103.3 1034.57 1112.19 1038.51 1114.97C1040.55 1116.41 1043.65 1115.99 1046 1116C1046 1079.6 1038.02 1043.38 1038 1007L1029 1007C1028.92 1016.9 1025.84 1030.6 1013 1028.67C1005.79 1027.59 998.786 1024.19 992 1021.68C980.23 1017.33 968.345 1013.23 956 1010.8C902.821 1000.37 843.018 1012.25 802 1049.17C762.571 1084.66 738.313 1136.83 737.015 1190C736.047 1229.6 750.62 1270.82 774.651 1302C784.838 1315.22 797.231 1326.57 811 1335.97C840.425 1356.07 876.743 1365.48 912 1367.04C953.33 1368.87 994.015 1363.13 1032 1345.69C1036.26 1343.73 1044.22 1341.31 1046.97 1337.36C1048.83 1334.71 1048 1330.06 1048 1327L1048 1302L1048 1227C1048 1214.71 1047.54 1199.87 1056.33 1190.09C1064.06 1181.49 1076.28 1181 1087 1181M1072 1157C1082.48 1153.09 1096.35 1149.1 1103.09 1161.01C1110.21 1173.58 1108 1192.09 1108 1206L1108 1293C1108 1306.88 1110.26 1324.08 1104.08 1337C1098.11 1349.48 1084.28 1351 1072 1351L1072 1360L1192 1360L1192 1351C1179.4 1351 1163.89 1350.26 1155.8 1338.99C1146.15 1325.54 1149 1303.6 1149 1288L1149 1225C1149 1215.42 1147.01 1203.25 1149.64 1194C1152.82 1182.8 1162.35 1170.41 1170.43 1162.29C1173.54 1159.16 1177.42 1155.75 1182 1155.25C1188.36 1154.57 1194.17 1159.72 1199 1163.14C1207.87 1169.43 1218.32 1174.78 1229 1169.32C1231.58 1168 1233.86 1166.11 1235.79 1163.96C1255.15 1142.25 1225.81 1116.28 1203 1120.81C1185.34 1124.32 1172.41 1138.02 1162.16 1152C1157.83 1157.89 1154.65 1165.32 1149 1170L1149 1120C1127.91 1120 1106.37 1133.03 1087 1140.8C1083.06 1142.38 1071.25 1145.15 1069.71 1149.42C1068.78 1151.98 1070.82 1154.9 1072 1157M1333 1120.42C1310.66 1123.37 1290.67 1129.91 1273 1144.46C1211.06 1195.46 1212.21 1308.81 1283 1351.8C1291.73 1357.1 1301.08 1361.16 1311 1363.62C1325.18 1367.15 1339.57 1367.51 1354 1365.71C1364.16 1364.45 1374.72 1361.57 1384 1357.22C1465.94 1318.8 1476.63 1188.11 1401 1138C1391.58 1131.76 1380.96 1126.92 1370 1124.13C1358.24 1121.14 1345.13 1118.83 1333 1120.42M1672 1148C1672.34 1150.28 1672.58 1153.48 1674.7 1154.93C1676.76 1156.34 1679.84 1155.15 1682 1154.63C1686.58 1153.52 1691.26 1152.47 1696 1153.21C1704.67 1154.58 1708 1163.36 1709.38 1171C1713.18 1192.02 1711 1214.7 1711 1236L1711 1351L1711 1409C1711 1420.42 1712.22 1432.91 1708.96 1444C1703.93 1461.09 1686.1 1462 1671 1462L1671 1470L1793 1470L1793 1462C1782.14 1462 1767.3 1462.49 1759.21 1453.9C1750.99 1445.16 1752 1431.08 1752 1420L1752 1346C1791.1 1381.99 1855.17 1368.79 1885.52 1328C1915.64 1287.53 1922.99 1226.85 1904.4 1180C1898.91 1166.17 1891.76 1152.59 1880.96 1142.09C1860.23 1121.93 1826.78 1114.24 1800 1126.31C1785.26 1132.96 1773.93 1144.31 1764.24 1157C1760.04 1162.49 1757.08 1169.31 1752 1174L1752 1121C1738.91 1121 1729.04 1125.18 1717 1130C1702.03 1135.99 1687.28 1142.83 1672 1148M1443 1128L1443 1136C1455.11 1136.01 1471.05 1137.06 1477.58 1149C1481.23 1155.68 1481 1163.64 1481 1171L1481 1200L1481 1267C1481 1285.05 1480.46 1303.4 1485.16 1321C1488.06 1331.88 1493.32 1342.73 1501.17 1350.91C1522.29 1372.91 1557.35 1369.46 1581 1353.92C1596.05 1344.03 1607.41 1330.6 1620 1318L1620 1367C1631.51 1367 1640.43 1363.03 1651 1358.8C1667.42 1352.23 1683.94 1343.67 1701 1339C1700.26 1335.88 1699.15 1332.99 1698 1330C1686.23 1333.83 1671.82 1338.18 1665.35 1324C1661.69 1315.96 1662 1306.62 1662 1298L1662 1263L1662 1128L1582 1128L1582 1136C1593.33 1136.01 1608.13 1136.94 1615.35 1147.01C1621.96 1156.23 1620 1170.33 1620 1181L1620 1255L1620 1290C1620 1295.67 1620.88 1301.4 1616.85 1305.96C1598.69 1326.53 1559.57 1350.35 1535.09 1325.91C1532.25 1323.06 1529.79 1319.6 1527.99 1316C1522.09 1304.2 1523 1290.76 1523 1278L1523 1216L1523 1128L1443 1128z"/>
<path style="fill:#ffffff; stroke:none;" d="M1329 1137.44C1323.51 1138.03 1318.13 1138.72 1313 1140.88C1277.64 1155.76 1272.62 1200.55 1274.91 1234C1275.39 1241.04 1275.5 1248 1276.59 1255C1277.91 1263.43 1279.5 1271.74 1281.63 1280C1284.28 1290.3 1287.95 1300.51 1292.76 1310C1303.89 1331.95 1324.56 1351.65 1351 1349.68C1357.37 1349.2 1364.1 1348.2 1370 1345.66C1388.59 1337.66 1397.34 1318.54 1401.87 1300C1411.53 1260.41 1406.49 1212.4 1388.25 1176C1377.16 1153.87 1355.49 1134.57 1329 1137.44M1799 1156.44C1784.68 1158.69 1773.98 1167.02 1764 1177C1760.15 1180.85 1755.14 1184.89 1752.94 1190C1750.83 1194.88 1752 1201.79 1752 1207L1752 1242L1752 1280C1752 1300.95 1751.38 1323.72 1769.01 1338.54C1772.66 1341.6 1776.71 1344.17 1781 1346.22C1785.94 1348.57 1791.56 1350.18 1797 1350.83C1804.57 1351.73 1811.44 1351.88 1819 1350.7C1841.11 1347.25 1855.74 1327.91 1862.66 1308C1875.18 1271.93 1873.43 1230.07 1858.42 1195C1848.14 1170.97 1826.52 1152.11 1799 1156.44z"/>
</svg>
