<?xml version="1.0" encoding="UTF-8"?>
<svg width="3242px" height="890px" viewBox="0 0 3242 890" version="1.1" xmlns="http://www.w3.org/2000/svg" xmlns:xlink="http://www.w3.org/1999/xlink">
    <!-- Generator: Sketch 46.2 (44496) - http://www.bohemiancoding.com/sketch -->
    <title>onshape-logo-new</title>
    <desc>Created with Sketch.</desc>
    <defs></defs>
    <g id="Page-1" stroke="none" stroke-width="1" fill="none" fill-rule="evenodd">
        <g id="onshape-logo-new" fill-rule="nonzero" fill="#0A3AA1">
            <path d="M279.72,19.57 C76.29,19.57 0,127.15 0,359.92 C0,592.69 76.29,699.29 279.72,699.29 C482.18,699.29 557.49,592.68 557.49,359.92 C557.49,127.16 482.18,19.57 279.72,19.57 Z M279.72,557.47 C206.37,557.47 175.08,521.29 175.08,359.92 C175.08,198.55 206.37,161.38 279.72,161.38 C352.1,161.38 384.37,197.56 384.37,359.92 C384.37,522.28 352.1,557.47 279.72,557.47 Z" id="Shape"></path>
            <path d="M1717.89,200.5 C1683.65,200.5 1647.46,209.3 1623.01,222.99 L1622.01,222.99 L1622.01,0 L1465.51,0 L1465.51,689.51 L1622,689.51 L1622,357 C1643.51,341.35 1670.89,330.59 1692.41,330.59 C1711.97,330.59 1719.8,338.42 1719.8,357.97 L1719.8,689.51 L1876.29,689.51 L1876.29,329.6 C1876.33,229.83 1796.12,200.5 1717.89,200.5 Z" id="Shape"></path>
            <path d="M3242,410.77 C3242,291.45 3192.12,200.49 3054.22,200.49 C2888.94,200.49 2837.09,294.39 2837.09,458.69 C2837.09,608.32 2896.75,699.29 3078.67,699.29 C3111.92,699.29 3186.25,693.42 3223.42,680.71 L3217.55,555.52 C3190.15,563.34 3138.33,572.15 3104.1,572.15 C3008.25,572.15 2999.44,543.78 2999.44,490.97 L3242,490.97 L3242,410.77 Z M3102.14,392.18 L2998.46,392.18 C3000.46,347.18 3007.27,311.99 3055.19,311.99 C3095.29,311.99 3102.14,348.18 3102.14,383.38 L3102.14,392.18 Z" id="Shape"></path>
            <path d="M1355.45,415.66 L1255.68,368.72 C1241.01,361.87 1232.22,357.95 1232.22,344.26 C1232.22,329.6 1242.97,324.7 1280.14,324.7 C1292.86,324.7 1358.38,326.7 1398.49,333.51 L1404.35,209.3 C1364.26,202.45 1302.63,200.5 1276.22,200.5 C1157.89,200.5 1072.8,239.62 1072.8,347.2 C1072.8,420.55 1112.9,464.57 1162.8,486.08 L1252.8,526.18 C1270.4,534.01 1278.22,541.82 1278.22,551.61 C1278.22,567.26 1268.49,566.61 1233.28,566.61 C1206.83,566.61 1152.28,566.61 1099.14,566.61 L1099.14,566.61 L1017,566.61 L1017,329.61 C1017,229.84 936.81,200.51 858.56,200.51 C807.7,200.51 761.73,218.11 730.44,240.61 L729.44,240.61 L720.64,210.29 L606.26,210.29 L606.26,689.51 L762.74,689.51 L762.74,357 C784.26,341.35 811.65,330.59 833.17,330.59 C852.72,330.59 860.55,338.42 860.55,357.97 L860.55,689.51 L977.26,689.51 L1305.73,689.73 C1382.79,675.98 1435.65,633.05 1435.65,544.73 C1435.65,477.28 1401.42,437.18 1355.45,415.66 Z" id="Shape"></path>
            <path d="M2639.51,200.49 C2595.51,200.49 2541.71,210.28 2504.51,240.59 L2503.51,240.59 L2494.7,210.28 L2380.34,210.28 L2380.34,566.63 L2302.08,566.63 L2302.08,331.55 C2302.08,233.74 2212.08,200.49 2107.45,200.49 C2065.38,200.49 1995.95,206.36 1938.24,220.05 L1944.11,346.22 C2009.64,332.53 2077.11,327.64 2100.6,327.64 C2130.92,327.64 2147.6,335.47 2147.6,363.82 L2147.6,390.22 C2075.23,390.22 1981.33,400.01 1941.23,440.11 C1912.87,468.47 1903.08,507.59 1903.08,544.76 C1903.08,644.52 1969.62,691.15 2053.7,692.84 C2078.08,693.32 2121.77,692.06 2167.54,689.48 L2380.39,689.48 L2380.39,890 L2536.87,890 L2536.87,693.42 C2556.42,696.35 2586.74,697.33 2606.31,697.33 C2748.13,697.33 2813.66,614.21 2813.66,445 C2813.61,313 2779.38,200.49 2639.51,200.49 Z M2149.51,562.36 C2137.78,573.12 2115.28,579.97 2100.61,579.97 C2071.26,579.97 2057.61,564.32 2057.61,532.97 C2057.61,528.08 2058.61,513.41 2067.39,504.61 C2081,491 2112.33,490 2149.5,490 L2149.51,562.36 Z M2582.79,570.81 C2569.16,572.01 2548.56,570.94 2536.79,567.03 L2536.79,348.18 C2549.5,338.4 2571.02,328.62 2595.47,328.62 C2632.64,328.62 2651.21,350.13 2651.21,451.84 C2651.24,534 2634.23,566.29 2582.78,570.81 L2582.79,570.81 Z" id="Shape"></path>
        </g>
    </g>
</svg>