<?xml version="1.0" encoding="UTF-8" standalone="no"?>
<!-- Created with Inkscape (http://www.inkscape.org/) -->

<svg
   xmlns:dc="http://purl.org/dc/elements/1.1/"
   xmlns:cc="http://creativecommons.org/ns#"
   xmlns:rdf="http://www.w3.org/1999/02/22-rdf-syntax-ns#"
   xmlns:svg="http://www.w3.org/2000/svg"
   xmlns="http://www.w3.org/2000/svg"
   xmlns:sodipodi="http://sodipodi.sourceforge.net/DTD/sodipodi-0.dtd"
   xmlns:inkscape="http://www.inkscape.org/namespaces/inkscape"
   height="12.01233mm"
   width="58.441093mm"
   viewBox="0 0 207.07474 42.563374"
   id="svg3983"
   version="1.1"
   inkscape:version="0.91 r13725"
   sodipodi:docname="SOLIDWORKS.svg">
  <defs
     id="defs3989" />
  <sodipodi:namedview
     pagecolor="#ffffff"
     bordercolor="#666666"
     borderopacity="1"
     objecttolerance="10"
     gridtolerance="10"
     guidetolerance="10"
     inkscape:pageopacity="0"
     inkscape:pageshadow="2"
     inkscape:window-width="1600"
     inkscape:window-height="882"
     id="namedview3987"
     showgrid="false"
     borderlayer="false"
     fit-margin-top="0"
     fit-margin-left="0"
     fit-margin-right="0"
     fit-margin-bottom="0"
     inkscape:zoom="7.1762364"
     inkscape:cx="63.772343"
     inkscape:cy="8.7638375"
     inkscape:window-x="0"
     inkscape:window-y="18"
     inkscape:window-maximized="1"
     inkscape:current-layer="g3669" />
  <metadata
     id="metadata3985">
    <rdf:RDF>
      <cc:Work
         rdf:about="">
        <dc:format>image/svg+xml</dc:format>
        <dc:type
           rdf:resource="http://purl.org/dc/dcmitype/StillImage" />
        <dc:title></dc:title>
      </cc:Work>
    </rdf:RDF>
  </metadata>
  <g
     transform="matrix(0.71900901,0,0,-0.71900901,-17.005995,59.570427)"
     inkscape:label="ink_ext_XXXXXX"
     id="g3667">
    <g
       transform="scale(0.1,0.1)"
       id="g3669">
      <path
         inkscape:connector-curvature="0"
         id="path3671"
         style="fill:#ed1d2b;fill-opacity:1;fill-rule:nonzero;stroke:none"
         d="m 2285.01,532.715 c 0.08,2.453 -1.02,5.605 -3.16,7.297 -2.18,1.746 -4.57,2.082 -6.86,2.113 l -11.92,0 -91.79,-208.012 -23.89,111.434 c -1.41,9.777 -9.25,16.445 -18.56,15.93 l -15.43,0 -72.45,-126.164 0.71,196.8 c 0.06,2.633 -0.97,5.867 -3.29,7.692 -2.26,1.851 -4.79,2.289 -7.32,2.32 l -15.46,0 0,-236.449 19.71,0 0,0.027 c 0.12,0 0.28,-0.027 0.44,-0.027 5.77,-0.051 11.02,1.387 15.32,4.512 3.89,2.792 7.25,6.667 10.19,11.335 l 63.43,113.184 26.44,-129.031 c 0,0 16.05,0 16.44,0 0.16,0 0.36,0 0.49,0 10.79,0 19.82,6.289 24.55,16.992 l 91.18,205.121 c 0.67,1.672 1.19,2.789 1.23,4.926 z m 831.47,9.379 -97.59,0 c -45.56,-0.102 -50.38,-37.512 -50.58,-55.18 -0.01,-18.555 13.48,-33.359 20.19,-39.324 l 66.45,-65.078 c 7.88,-7.746 11.72,-16.887 11.72,-25.41 0,-14.387 -11.01,-26.172 -28.78,-26.094 -0.05,-0.098 -86.02,-0.129 -86.81,-0.363 -2.8,-0.516 -5.76,-4.219 -5.71,-7.168 l -0.26,0 0.26,-0.098 c 0,-0.106 0.02,-14.363 0.02,-17.754 l 96.57,0 c 45.57,0.156 50.4,37.531 50.62,55.148 0,0.079 -0.04,0.106 -0.04,0.157 0.05,24.441 -22.44,43.34 -22.58,43.398 l -63,61.992 c -7.87,7.743 -12.73,15.723 -12.77,24.297 0.04,14.461 11.04,26.16 28.76,26.16 0.11,0.051 87.05,0.129 87.8,0.344 l 0.19,-0.656 -0.17,0.656 c 2.83,0.516 5.84,4.227 5.75,7.152 0,0 -0.04,0.047 0,0.102 0,0.133 -0.04,14.359 -0.04,17.719 z M 2420.12,518.41 c -43.37,2.371 -92.94,-23.144 -109.97,-92.101 -16.77,-67.559 14.59,-100.371 57.09,-105.84 l 4.43,-0.203 c 43.85,-2.325 90.53,23.242 106.96,92.175 16.03,67.61 -15.4,101.563 -58.51,105.969 z m 83.84,-108.027 C 2488.01,343.195 2439.6,290.156 2362.27,296.105 l 0,0.047 c -71.94,8.313 -92.55,71.594 -77.35,132.239 16.74,67.156 65,120.195 141.19,114.281 l 0,-0.055 c 70.99,-8.285 92.22,-71.64 77.85,-132.234 z m 430.55,129.472 c -2.01,1.512 -4.23,1.801 -6.5,1.825 l -11.54,0 -121.68,-104.071 16.2,91.954 c 1,5.105 -1.46,8.574 -3.55,10.031 -2.15,1.672 -4.81,2.5 -7.42,2.5 l -11.71,0 -43.95,-236.418 26.02,0 19.24,104.637 96.35,-104.688 11.55,0 c 2.29,0.051 4.49,0.371 6.44,1.855 2.03,1.407 3.08,4.192 3.02,6.458 0,4.246 -3.47,8.523 -3.47,8.523 l -91.16,99.062 121.71,103.375 c 0,0 3.42,2.918 3.42,8.543 0.04,2.243 -0.97,4.957 -2.97,6.414 z M 2690.2,506.223 c -4.77,4.617 -12,6.804 -23.22,8.914 -2.94,0.547 -7.74,0.988 -13.22,1.25 -13.53,0.754 -53.74,0.156 -66.06,0.031 l -15.58,-86.008 c 9.24,-0.125 19.88,-0.262 27.33,-0.312 21.03,0 41.38,0.675 55.8,4.609 37.01,10.059 55.36,52.051 34.95,71.516 z m 23.9,14.265 c 10.52,-11.941 11.3,-34.179 8.32,-47.832 -3.66,-16.707 -19.55,-58.894 -79.13,-64.238 l 50.17,-85.957 c 0,0 3.44,-5.156 3.44,-8.523 0.05,-2.266 -0.97,-5.051 -3,-6.458 -2.01,-1.484 -4.17,-1.855 -6.42,-1.855 l -13.26,0 -58.84,101.406 -47.41,0.207 -18.39,-101.613 -26.02,0 43.99,236.469 60.74,0 c 35.9,0 67.41,-0.516 85.81,-21.606 z M 965.598,491.602 c -2.977,-19.024 2.879,-41.387 24.09,-56.211 l 75.582,-52.754 c 7.93,-5.469 11.85,-9.227 10.89,-15.633 -1.42,-8.809 -6.04,-12.402 -21.71,-12.402 l -87.903,0 c -9.391,0 -14.512,-4.59 -16.219,-15.196 l 0,-32.765 102.982,0 c 45.13,0 67.46,26.613 71.95,54.914 4.22,26.582 -4.72,45.586 -21.89,57.832 l -80.32,57.019 c -6.45,4.641 -8.06,7.043 -7.62,10.508 0.73,5.813 6,8.203 15.15,8.203 l 91.78,0 c 11.23,0 17.62,11.446 19.41,22.832 l 0,25.168 -121.38,0 c -26.913,0 -50.433,-24.074 -54.792,-51.515 z m 914.832,51.539 -127.25,0 -0.67,-3.805 c -2.95,-16.055 -1.63,-34.648 23.75,-34.648 l 94.27,0 c 37.36,0 51.63,-27 42.39,-77.696 -8.49,-46.414 -33.5,-81.883 -71.52,-81.883 l -51.11,0 24.27,133.016 -43.48,0 c -5.83,0 -9.87,-4.246 -10.57,-8.047 l -29.81,-163.406 99.68,0 c 73.62,0 124.91,34.637 140.83,122.039 12.27,67.141 -15.69,114.43 -90.78,114.43 z m -302.16,-198.051 -100.46,0 34.71,190 c 0.66,3.801 -2.17,8.027 -6.9,8.027 l -44.23,0 -43.16,-236.445 166.44,0 4.31,23.633 c 1.92,10.586 -1.63,14.785 -10.71,14.785 z m 125.22,198.051 -44.23,0 -43.17,-236.469 52.58,0 41.72,228.441 c 0.69,3.805 -2.15,8.028 -6.9,8.028 z m -408.91,-40.543 c -47.96,0 -73.09,-27.871 -82.08,-82.754 -9.03,-54.942 6.95,-82.774 54.92,-82.774 47.95,0 73.05,27.832 82.08,82.774 9.02,54.883 -6.95,82.754 -54.92,82.754 z m 107.12,-82.754 c -11.03,-67.137 -56.46,-123.328 -140.94,-123.328 -84.51,0 -111.49,56.191 -100.48,123.328 11.02,67.129 56.49,123.273 140.97,123.273 84.49,0 111.48,-56.144 100.45,-123.273 z M 787.395,625.492 c -50.223,8.238 -140.067,11.442 -170.774,-35.625 -23.726,-36.379 21.113,-86.176 61.938,-134.437 32.714,-38.653 68.332,-75.575 53.789,-97.157 -11.864,-17.617 -87.957,-17.589 -114.168,-18.976 -31.856,-1.688 -77.684,-1.797 -85.692,-6.152 -7.183,-3.856 -11.199,-15.868 15.758,-20.692 21.621,-3.879 73.145,-11.777 127.524,-11.73 56.73,0 116.355,9.308 129.285,53.254 10.379,35.281 -25.629,73.093 -57.313,111.464 -34.668,41.981 -69.789,71.938 -66.836,101.672 2.274,23.121 47.641,24.45 122.922,25.778 15.668,0.289 46.848,1.047 40.836,13.398 -5.355,10.918 -28.668,14.543 -57.269,19.203 z M 555.805,520.754 c -32.219,22.098 -89.657,29.5 -136.942,27.051 -42.09,-2.242 -114.5,-15.614 -111.761,-28.938 2.543,-14.394 48.39,-9.929 69.382,-9.929 46.161,0 119.454,-2.844 130.993,-32.579 24.894,-64.113 -143.891,-179.199 -179.899,-168.156 -16.269,4.981 33.067,88.645 50.981,118.742 10.652,17.957 26.867,46.18 13.023,48.086 -15.465,2.137 -32.5,-24.426 -43.559,-39.746 -30.035,-41.621 -60.812,-87.043 -85.46,-133.722 -7.637,-14.415 -32.938,-57.801 -24.25,-63.407 8.101,-5.215 46.707,2.188 95.804,21.66 154.379,61.133 223.871,140.75 242.481,206.563 6.527,23.164 -4.746,43.387 -20.793,54.375 z M 441.199,801.801 c -3.176,10.363 48.305,23.875 104.778,26.375 56.882,2.504 124.195,-8.821 136.734,-46.363 20.555,-61.504 -83.609,-151.18 -174.375,-195.231 -22.277,-10.785 -35.758,-13.758 -41.387,-13.004 -5.347,0.703 -6.183,5.711 -4.429,9.149 3.218,6.464 17.871,19.652 37.457,33.957 102.179,74.644 135.41,129.371 116.101,151.566 -12.379,14.219 -64.168,24.094 -117.953,24.094 -14.613,0 -52.984,-3.184 -56.926,9.457" />
    </g>
  </g>
</svg>
