<?xml version="1.0" encoding="UTF-8" standalone="no"?>
<!-- Generator: Adobe Illustrator 22.0.1, SVG Export Plug-In . SVG Version: 6.00 Build 0)  -->

<svg
   xmlns:dc="http://purl.org/dc/elements/1.1/"
   xmlns:cc="http://creativecommons.org/ns#"
   xmlns:rdf="http://www.w3.org/1999/02/22-rdf-syntax-ns#"
   xmlns:svg="http://www.w3.org/2000/svg"
   xmlns="http://www.w3.org/2000/svg"
   xmlns:sodipodi="http://sodipodi.sourceforge.net/DTD/sodipodi-0.dtd"
   xmlns:inkscape="http://www.inkscape.org/namespaces/inkscape"
   version="1.1"
   id="Layer_1"
   x="0px"
   y="0px"
   viewBox="0 0 1576.3 552.3"
   style="enable-background:new 0 0 1576.3 552.3;"
   xml:space="preserve"
   sodipodi:docname="VeranceLogo.svg"
   inkscape:version="0.92.2 (5c3e80d, 2017-08-06)"><metadata
     id="metadata277"><rdf:RDF><cc:Work
         rdf:about=""><dc:format>image/svg+xml</dc:format><dc:type
           rdf:resource="http://purl.org/dc/dcmitype/StillImage" /></cc:Work></rdf:RDF></metadata><defs
     id="defs275" /><sodipodi:namedview
     pagecolor="#ffffff"
     bordercolor="#666666"
     borderopacity="1"
     objecttolerance="10"
     gridtolerance="10"
     guidetolerance="10"
     inkscape:pageopacity="0"
     inkscape:pageshadow="2"
     inkscape:window-width="1600"
     inkscape:window-height="872"
     id="namedview273"
     showgrid="false"
     inkscape:zoom="0.86785508"
     inkscape:cx="549.27299"
     inkscape:cy="249.78332"
     inkscape:window-x="1600"
     inkscape:window-y="0"
     inkscape:window-maximized="1"
     inkscape:current-layer="Layer_1" /><style
     type="text/css"
     id="style2">
	.st0{fill:#F47920;}
	.st1{fill:#1D2C3A;}
</style><g
     id="g1369"
     style="fill:#ed1d2b;fill-opacity:1"><g
       style="fill:#ed1d2b;fill-opacity:1"
       id="g254"><path
         style="fill:#ed1d2b;fill-opacity:1"
         id="path4"
         d="M273.4,362.3c0,2.1-1.7,3.8-3.8,3.8c-2.1,0-3.8-1.7-3.8-3.8c0-2.1,1.7-3.8,3.8-3.8   C271.8,358.6,273.4,360.3,273.4,362.3z"
         class="st0" /><path
         style="fill:#ed1d2b;fill-opacity:1"
         id="path6"
         d="M282.9,379.1c0,1.9-1.6,3.5-3.5,3.5c-1.9,0-3.5-1.6-3.5-3.5s1.6-3.5,3.5-3.5   C281.3,375.6,282.9,377.2,282.9,379.1z"
         class="st0" /><path
         style="fill:#ed1d2b;fill-opacity:1"
         id="path8"
         d="M292.3,395.9c0,1.8-1.4,3.2-3.2,3.2c-1.8,0-3.2-1.4-3.2-3.2s1.4-3.2,3.2-3.2   C290.8,392.7,292.3,394.2,292.3,395.9z"
         class="st0" /><path
         style="fill:#ed1d2b;fill-opacity:1"
         id="path10"
         d="M292.3,362.3c0,1.8-1.4,3.2-3.2,3.2c-1.8,0-3.2-1.4-3.2-3.2s1.4-3.2,3.2-3.2   C290.8,359.1,292.3,360.6,292.3,362.3z"
         class="st0" /><path
         style="fill:#ed1d2b;fill-opacity:1"
         id="path12"
         d="M254.6,328.8c0,2.4-1.9,4.3-4.3,4.3c-2.4,0-4.3-1.9-4.3-4.3c0-2.4,1.9-4.3,4.3-4.3   C252.7,324.4,254.6,326.4,254.6,328.8z"
         class="st0" /><path
         style="fill:#ed1d2b;fill-opacity:1"
         id="path14"
         d="M273.4,328.8c0,2.1-1.7,3.8-3.8,3.8c-2.1,0-3.8-1.7-3.8-3.8c0-2.1,1.7-3.8,3.8-3.8   C271.8,325,273.4,326.7,273.4,328.8z"
         class="st0" /><path
         style="fill:#ed1d2b;fill-opacity:1"
         id="path16"
         d="M292.3,328.8c0,1.8-1.4,3.2-3.2,3.2c-1.8,0-3.2-1.4-3.2-3.2s1.4-3.2,3.2-3.2   C290.8,325.5,292.3,327,292.3,328.8z"
         class="st0" /><circle
         style="fill:#ed1d2b;fill-opacity:1"
         id="circle18"
         r="4.9"
         cy="295.2"
         cx="230.9"
         class="st0" /><path
         style="fill:#ed1d2b;fill-opacity:1"
         id="path20"
         d="M254.6,295.2c0,2.4-1.9,4.3-4.3,4.3c-2.4,0-4.3-1.9-4.3-4.3c0-2.4,1.9-4.3,4.3-4.3   C252.7,290.8,254.6,292.8,254.6,295.2z"
         class="st0" /><path
         style="fill:#ed1d2b;fill-opacity:1"
         id="path22"
         d="M273.4,295.2c0,2.1-1.7,3.8-3.8,3.8c-2.1,0-3.8-1.7-3.8-3.8c0-2.1,1.7-3.8,3.8-3.8   C271.8,291.4,273.4,293.1,273.4,295.2z"
         class="st0" /><path
         style="fill:#ed1d2b;fill-opacity:1"
         id="path24"
         d="M292.3,295.2c0,1.8-1.4,3.2-3.2,3.2c-1.8,0-3.2-1.4-3.2-3.2c0-1.8,1.4-3.2,3.2-3.2   C290.8,291.9,292.3,293.4,292.3,295.2z"
         class="st0" /><path
         style="fill:#ed1d2b;fill-opacity:1"
         id="path26"
         d="M216.9,261.6c0,3-2.4,5.4-5.4,5.4c-3,0-5.4-2.4-5.4-5.4c0-3,2.4-5.4,5.4-5.4   C214.5,256.2,216.9,258.6,216.9,261.6z"
         class="st0" /><path
         style="fill:#ed1d2b;fill-opacity:1"
         id="path28"
         d="M235.8,261.6c0,2.7-2.2,4.9-4.9,4.9c-2.7,0-4.9-2.2-4.9-4.9c0-2.7,2.2-4.9,4.9-4.9   C233.6,256.7,235.8,258.9,235.8,261.6z"
         class="st0" /><path
         style="fill:#ed1d2b;fill-opacity:1"
         id="path30"
         d="M254.6,261.6c0,2.4-1.9,4.3-4.3,4.3c-2.4,0-4.3-1.9-4.3-4.3c0-2.4,1.9-4.3,4.3-4.3   C252.7,257.3,254.6,259.2,254.6,261.6z"
         class="st0" /><path
         style="fill:#ed1d2b;fill-opacity:1"
         id="path32"
         d="M273.4,261.6c0,2.1-1.7,3.8-3.8,3.8c-2.1,0-3.8-1.7-3.8-3.8c0-2.1,1.7-3.8,3.8-3.8   C271.8,257.8,273.4,259.5,273.4,261.6z"
         class="st0" /><path
         style="fill:#ed1d2b;fill-opacity:1"
         id="path34"
         d="M292.3,261.6c0,1.8-1.4,3.2-3.2,3.2c-1.8,0-3.2-1.4-3.2-3.2c0-1.8,1.4-3.2,3.2-3.2   C290.8,258.4,292.3,259.8,292.3,261.6z"
         class="st0" /><path
         style="fill:#ed1d2b;fill-opacity:1"
         id="path36"
         d="M198.1,228c0,3.3-2.7,6-6,6c-3.3,0-6-2.7-6-6c0-3.3,2.7-6,6-6C195.4,222,198.1,224.7,198.1,228z"
         class="st0" /><path
         style="fill:#ed1d2b;fill-opacity:1"
         id="path38"
         d="M216.9,228c0,3-2.4,5.4-5.4,5.4c-3,0-5.4-2.4-5.4-5.4c0-3,2.4-5.4,5.4-5.4C214.5,222.6,216.9,225,216.9,228z"
         class="st0" /><path
         style="fill:#ed1d2b;fill-opacity:1"
         id="path40"
         d="M235.8,228c0,2.7-2.2,4.9-4.9,4.9c-2.7,0-4.9-2.2-4.9-4.9c0-2.7,2.2-4.9,4.9-4.9   C233.6,223.1,235.8,225.3,235.8,228z"
         class="st0" /><path
         style="fill:#ed1d2b;fill-opacity:1"
         id="path42"
         d="M254.6,228c0,2.4-1.9,4.3-4.3,4.3c-2.4,0-4.3-1.9-4.3-4.3c0-2.4,1.9-4.3,4.3-4.3   C252.7,223.7,254.6,225.6,254.6,228z"
         class="st0" /><path
         style="fill:#ed1d2b;fill-opacity:1"
         id="path44"
         d="M273.4,228c0,2.1-1.7,3.8-3.8,3.8c-2.1,0-3.8-1.7-3.8-3.8c0-2.1,1.7-3.8,3.8-3.8   C271.8,224.2,273.4,225.9,273.4,228z"
         class="st0" /><path
         style="fill:#ed1d2b;fill-opacity:1"
         id="path46"
         d="M179.2,194.4c0,3.6-2.9,6.5-6.5,6.5c-3.6,0-6.5-2.9-6.5-6.5c0-3.6,2.9-6.5,6.5-6.5   C176.3,187.9,179.2,190.8,179.2,194.4z"
         class="st0" /><path
         style="fill:#ed1d2b;fill-opacity:1"
         id="path48"
         d="M198.1,194.4c0,3.3-2.7,6-6,6c-3.3,0-6-2.7-6-6c0-3.3,2.7-6,6-6C195.4,188.4,198.1,191.1,198.1,194.4z"
         class="st0" /><path
         style="fill:#ed1d2b;fill-opacity:1"
         id="path50"
         d="M216.9,194.4c0,3-2.4,5.4-5.4,5.4c-3,0-5.4-2.4-5.4-5.4c0-3,2.4-5.4,5.4-5.4   C214.5,189,216.9,191.4,216.9,194.4z"
         class="st0" /><path
         style="fill:#ed1d2b;fill-opacity:1"
         id="path52"
         d="M235.8,194.4c0,2.7-2.2,4.9-4.9,4.9c-2.7,0-4.9-2.2-4.9-4.9c0-2.7,2.2-4.9,4.9-4.9   C233.6,189.5,235.8,191.7,235.8,194.4z"
         class="st0" /><path
         style="fill:#ed1d2b;fill-opacity:1"
         id="path54"
         d="M254.6,194.4c0,2.4-1.9,4.3-4.3,4.3c-2.4,0-4.3-1.9-4.3-4.3s1.9-4.3,4.3-4.3   C252.7,190.1,254.6,192,254.6,194.4z"
         class="st0" /><path
         style="fill:#ed1d2b;fill-opacity:1"
         id="path56"
         d="M160.4,160.8c0,3.9-3.2,7.1-7.1,7.1c-3.9,0-7.1-3.2-7.1-7.1c0-3.9,3.2-7.1,7.1-7.1   C157.2,153.7,160.4,156.9,160.4,160.8z"
         class="st0" /><circle
         style="fill:#ed1d2b;fill-opacity:1"
         id="circle58"
         r="6.5"
         cy="160.8"
         cx="172.7"
         class="st0" /><path
         style="fill:#ed1d2b;fill-opacity:1"
         id="path60"
         d="M198.1,160.8c0,3.3-2.7,6-6,6c-3.3,0-6-2.7-6-6c0-3.3,2.7-6,6-6C195.4,154.8,198.1,157.5,198.1,160.8z"
         class="st0" /><path
         style="fill:#ed1d2b;fill-opacity:1"
         id="path62"
         d="M216.9,160.8c0,3-2.4,5.4-5.4,5.4c-3,0-5.4-2.4-5.4-5.4c0-3,2.4-5.4,5.4-5.4   C214.5,155.4,216.9,157.8,216.9,160.8z"
         class="st0" /><path
         style="fill:#ed1d2b;fill-opacity:1"
         id="path64"
         d="M235.8,160.8c0,2.7-2.2,4.9-4.9,4.9c-2.7,0-4.9-2.2-4.9-4.9c0-2.7,2.2-4.9,4.9-4.9   C233.6,155.9,235.8,158.1,235.8,160.8z"
         class="st0" /><path
         style="fill:#ed1d2b;fill-opacity:1"
         id="path66"
         d="M301.7,412.7c0,1.6-1.3,2.9-2.9,2.9c-1.6,0-2.9-1.3-2.9-2.9c0-1.6,1.3-2.9,2.9-2.9   C300.4,409.8,301.7,411.1,301.7,412.7z"
         class="st0" /><path
         style="fill:#ed1d2b;fill-opacity:1"
         id="path68"
         d="M301.7,379.1c0,1.6-1.3,2.9-2.9,2.9c-1.6,0-2.9-1.3-2.9-2.9c0-1.6,1.3-2.9,2.9-2.9   C300.4,376.2,301.7,377.5,301.7,379.1z"
         class="st0" /><circle
         style="fill:#ed1d2b;fill-opacity:1"
         id="circle70"
         r="4"
         cy="345.5"
         cx="260"
         class="st0" /><path
         style="fill:#ed1d2b;fill-opacity:1"
         id="path72"
         d="M282.9,345.5c0,1.9-1.6,3.5-3.5,3.5c-1.9,0-3.5-1.6-3.5-3.5s1.6-3.5,3.5-3.5   C281.3,342.1,282.9,343.6,282.9,345.5z"
         class="st0" /><path
         style="fill:#ed1d2b;fill-opacity:1"
         id="path74"
         d="M301.7,345.5c0,1.6-1.3,2.9-2.9,2.9c-1.6,0-2.9-1.3-2.9-2.9c0-1.6,1.3-2.9,2.9-2.9   C300.4,342.6,301.7,343.9,301.7,345.5z"
         class="st0" /><path
         style="fill:#ed1d2b;fill-opacity:1"
         id="path76"
         d="M245.2,312c0,2.5-2.1,4.6-4.6,4.6c-2.5,0-4.6-2.1-4.6-4.6s2.1-4.6,4.6-4.6C243.1,307.4,245.2,309.4,245.2,312z   "
         class="st0" /><circle
         style="fill:#ed1d2b;fill-opacity:1"
         id="circle78"
         r="4"
         cy="312"
         cx="260"
         class="st0" /><path
         style="fill:#ed1d2b;fill-opacity:1"
         id="path80"
         d="M282.9,312c0,1.9-1.6,3.5-3.5,3.5c-1.9,0-3.5-1.6-3.5-3.5s1.6-3.5,3.5-3.5C281.3,308.5,282.9,310,282.9,312z"
         class="st0" /><path
         style="fill:#ed1d2b;fill-opacity:1"
         id="path82"
         d="M301.7,312c0,1.6-1.3,2.9-2.9,2.9c-1.6,0-2.9-1.3-2.9-2.9c0-1.6,1.3-2.9,2.9-2.9   C300.4,309,301.7,310.3,301.7,312z"
         class="st0" /><circle
         style="fill:#ed1d2b;fill-opacity:1"
         id="circle84"
         r="5.1"
         cy="278.4"
         cx="221.2"
         class="st0" /><path
         style="fill:#ed1d2b;fill-opacity:1"
         id="path86"
         d="M245.2,278.4c0,2.5-2.1,4.6-4.6,4.6c-2.5,0-4.6-2.1-4.6-4.6s2.1-4.6,4.6-4.6   C243.1,273.8,245.2,275.8,245.2,278.4z"
         class="st0" /><circle
         style="fill:#ed1d2b;fill-opacity:1"
         id="circle88"
         r="4"
         cy="278.4"
         cx="260"
         class="st0" /><path
         style="fill:#ed1d2b;fill-opacity:1"
         id="path90"
         d="M282.9,278.4c0,1.9-1.6,3.5-3.5,3.5c-1.9,0-3.5-1.6-3.5-3.5s1.6-3.5,3.5-3.5   C281.3,274.9,282.9,276.4,282.9,278.4z"
         class="st0" /><path
         style="fill:#ed1d2b;fill-opacity:1"
         id="path92"
         d="M301.7,278.4c0,1.6-1.3,2.9-2.9,2.9c-1.6,0-2.9-1.3-2.9-2.9s1.3-2.9,2.9-2.9   C300.4,275.4,301.7,276.7,301.7,278.4z"
         class="st0" /><circle
         style="fill:#ed1d2b;fill-opacity:1"
         id="circle94"
         r="5.7"
         cy="244.8"
         cx="201.8"
         class="st0" /><circle
         style="fill:#ed1d2b;fill-opacity:1"
         id="circle96"
         r="5.1"
         cy="244.8"
         cx="221.2"
         class="st0" /><path
         style="fill:#ed1d2b;fill-opacity:1"
         id="path98"
         d="M245.2,244.8c0,2.5-2.1,4.6-4.6,4.6c-2.5,0-4.6-2.1-4.6-4.6c0-2.5,2.1-4.6,4.6-4.6   C243.1,240.2,245.2,242.2,245.2,244.8z"
         class="st0" /><circle
         style="fill:#ed1d2b;fill-opacity:1"
         id="circle100"
         r="4"
         cy="244.8"
         cx="260"
         class="st0" /><path
         style="fill:#ed1d2b;fill-opacity:1"
         id="path102"
         d="M282.9,244.8c0,1.9-1.6,3.5-3.5,3.5c-1.9,0-3.5-1.6-3.5-3.5c0-1.9,1.6-3.5,3.5-3.5   C281.3,241.3,282.9,242.8,282.9,244.8z"
         class="st0" /><circle
         style="fill:#ed1d2b;fill-opacity:1"
         id="circle104"
         r="6.2"
         cy="211.2"
         cx="182.4"
         class="st0" /><circle
         style="fill:#ed1d2b;fill-opacity:1"
         id="circle106"
         r="5.7"
         cy="211.2"
         cx="201.8"
         class="st0" /><circle
         style="fill:#ed1d2b;fill-opacity:1"
         id="circle108"
         r="5.1"
         cy="211.2"
         cx="221.2"
         class="st0" /><path
         style="fill:#ed1d2b;fill-opacity:1"
         id="path110"
         d="M245.2,211.2c0,2.5-2.1,4.6-4.6,4.6c-2.5,0-4.6-2.1-4.6-4.6c0-2.5,2.1-4.6,4.6-4.6   C243.1,206.6,245.2,208.6,245.2,211.2z"
         class="st0" /><circle
         style="fill:#ed1d2b;fill-opacity:1"
         id="circle112"
         r="4"
         cy="211.2"
         cx="260"
         class="st0" /><circle
         style="fill:#ed1d2b;fill-opacity:1"
         id="circle114"
         r="6.8"
         cy="177.6"
         cx="163"
         class="st0" /><circle
         style="fill:#ed1d2b;fill-opacity:1"
         id="circle116"
         r="6.2"
         cy="177.6"
         cx="182.4"
         class="st0" /><circle
         style="fill:#ed1d2b;fill-opacity:1"
         id="circle118"
         r="5.7"
         cy="177.6"
         cx="201.8"
         class="st0" /><circle
         style="fill:#ed1d2b;fill-opacity:1"
         id="circle120"
         r="5.1"
         cy="177.6"
         cx="221.2"
         class="st0" /><path
         style="fill:#ed1d2b;fill-opacity:1"
         id="path122"
         d="M245.2,177.6c0,2.5-2.1,4.6-4.6,4.6c-2.5,0-4.6-2.1-4.6-4.6c0-2.5,2.1-4.6,4.6-4.6   C243.1,173,245.2,175.1,245.2,177.6z"
         class="st0" /><circle
         style="fill:#ed1d2b;fill-opacity:1"
         id="circle124"
         r="7.4"
         cy="144"
         cx="143.6"
         class="st0" /><circle
         style="fill:#ed1d2b;fill-opacity:1"
         id="circle126"
         r="6.8"
         cy="144"
         cx="163"
         class="st0" /><circle
         style="fill:#ed1d2b;fill-opacity:1"
         id="circle128"
         r="6.2"
         cy="144"
         cx="182.4"
         class="st0" /><circle
         style="fill:#ed1d2b;fill-opacity:1"
         id="circle130"
         r="5.7"
         cy="144"
         cx="201.8"
         class="st0" /><path
         style="fill:#ed1d2b;fill-opacity:1"
         id="path132"
         d="M226.3,144c0,2.8-2.3,5.1-5.1,5.1c-2.8,0-5.1-2.3-5.1-5.1s2.3-5.1,5.1-5.1C224,138.9,226.3,141.2,226.3,144z"
         class="st0" /><path
         style="fill:#ed1d2b;fill-opacity:1"
         id="path134"
         d="M324.1,362.3c0,2.1,1.7,3.8,3.8,3.8c2.1,0,3.8-1.7,3.8-3.8c0-2.1-1.7-3.8-3.8-3.8   C325.8,358.6,324.1,360.3,324.1,362.3z"
         class="st0" /><path
         style="fill:#ed1d2b;fill-opacity:1"
         id="path136"
         d="M314.7,379.1c0,1.9,1.6,3.5,3.5,3.5c1.9,0,3.5-1.6,3.5-3.5s-1.6-3.5-3.5-3.5   C316.2,375.6,314.7,377.2,314.7,379.1z"
         class="st0" /><circle
         style="fill:#ed1d2b;fill-opacity:1"
         id="circle138"
         r="3.2"
         cy="395.9"
         cx="308.5"
         class="st0" /><circle
         style="fill:#ed1d2b;fill-opacity:1"
         id="circle140"
         r="3.2"
         cy="362.3"
         cx="308.5"
         class="st0" /><path
         style="fill:#ed1d2b;fill-opacity:1"
         id="path142"
         d="M342.9,328.8c0,2.4,1.9,4.3,4.3,4.3c2.4,0,4.3-1.9,4.3-4.3c0-2.4-1.9-4.3-4.3-4.3   C344.9,324.4,342.9,326.4,342.9,328.8z"
         class="st0" /><path
         style="fill:#ed1d2b;fill-opacity:1"
         id="path144"
         d="M324.1,328.8c0,2.1,1.7,3.8,3.8,3.8c2.1,0,3.8-1.7,3.8-3.8c0-2.1-1.7-3.8-3.8-3.8   C325.8,325,324.1,326.7,324.1,328.8z"
         class="st0" /><circle
         style="fill:#ed1d2b;fill-opacity:1"
         id="circle146"
         r="3.2"
         cy="328.8"
         cx="308.5"
         class="st0" /><path
         style="fill:#ed1d2b;fill-opacity:1"
         id="path148"
         d="M361.8,295.2c0,2.7,2.2,4.9,4.9,4.9c2.7,0,4.9-2.2,4.9-4.9c0-2.7-2.2-4.9-4.9-4.9   C364,290.3,361.8,292.5,361.8,295.2z"
         class="st0" /><path
         style="fill:#ed1d2b;fill-opacity:1"
         id="path150"
         d="M342.9,295.2c0,2.4,1.9,4.3,4.3,4.3c2.4,0,4.3-1.9,4.3-4.3c0-2.4-1.9-4.3-4.3-4.3   C344.9,290.8,342.9,292.8,342.9,295.2z"
         class="st0" /><path
         style="fill:#ed1d2b;fill-opacity:1"
         id="path152"
         d="M324.1,295.2c0,2.1,1.7,3.8,3.8,3.8c2.1,0,3.8-1.7,3.8-3.8c0-2.1-1.7-3.8-3.8-3.8   C325.8,291.4,324.1,293.1,324.1,295.2z"
         class="st0" /><path
         style="fill:#ed1d2b;fill-opacity:1"
         id="path154"
         d="M305.2,295.2c0,1.8,1.4,3.2,3.2,3.2s3.2-1.4,3.2-3.2c0-1.8-1.4-3.2-3.2-3.2S305.2,293.4,305.2,295.2z"
         class="st0" /><path
         style="fill:#ed1d2b;fill-opacity:1"
         id="path156"
         d="M380.6,261.6c0,3,2.4,5.4,5.4,5.4s5.4-2.4,5.4-5.4c0-3-2.4-5.4-5.4-5.4S380.6,258.6,380.6,261.6z"
         class="st0" /><path
         style="fill:#ed1d2b;fill-opacity:1"
         id="path158"
         d="M361.8,261.6c0,2.7,2.2,4.9,4.9,4.9c2.7,0,4.9-2.2,4.9-4.9c0-2.7-2.2-4.9-4.9-4.9   C364,256.7,361.8,258.9,361.8,261.6z"
         class="st0" /><path
         style="fill:#ed1d2b;fill-opacity:1"
         id="path160"
         d="M342.9,261.6c0,2.4,1.9,4.3,4.3,4.3c2.4,0,4.3-1.9,4.3-4.3c0-2.4-1.9-4.3-4.3-4.3   C344.9,257.3,342.9,259.2,342.9,261.6z"
         class="st0" /><path
         style="fill:#ed1d2b;fill-opacity:1"
         id="path162"
         d="M324.1,261.6c0,2.1,1.7,3.8,3.8,3.8c2.1,0,3.8-1.7,3.8-3.8c0-2.1-1.7-3.8-3.8-3.8   C325.8,257.8,324.1,259.5,324.1,261.6z"
         class="st0" /><path
         style="fill:#ed1d2b;fill-opacity:1"
         id="path164"
         d="M305.2,261.6c0,1.8,1.4,3.2,3.2,3.2s3.2-1.4,3.2-3.2c0-1.8-1.4-3.2-3.2-3.2S305.2,259.8,305.2,261.6z"
         class="st0" /><path
         style="fill:#ed1d2b;fill-opacity:1"
         id="path166"
         d="M399.5,228c0,3.3,2.7,6,6,6s6-2.7,6-6c0-3.3-2.7-6-6-6S399.5,224.7,399.5,228z"
         class="st0" /><path
         style="fill:#ed1d2b;fill-opacity:1"
         id="path168"
         d="M380.6,228c0,3,2.4,5.4,5.4,5.4s5.4-2.4,5.4-5.4c0-3-2.4-5.4-5.4-5.4S380.6,225,380.6,228z"
         class="st0" /><path
         style="fill:#ed1d2b;fill-opacity:1"
         id="path170"
         d="M361.8,228c0,2.7,2.2,4.9,4.9,4.9c2.7,0,4.9-2.2,4.9-4.9c0-2.7-2.2-4.9-4.9-4.9   C364,223.1,361.8,225.3,361.8,228z"
         class="st0" /><path
         style="fill:#ed1d2b;fill-opacity:1"
         id="path172"
         d="M342.9,228c0,2.4,1.9,4.3,4.3,4.3c2.4,0,4.3-1.9,4.3-4.3c0-2.4-1.9-4.3-4.3-4.3   C344.9,223.7,342.9,225.6,342.9,228z"
         class="st0" /><path
         style="fill:#ed1d2b;fill-opacity:1"
         id="path174"
         d="M324.1,228c0,2.1,1.7,3.8,3.8,3.8c2.1,0,3.8-1.7,3.8-3.8c0-2.1-1.7-3.8-3.8-3.8   C325.8,224.2,324.1,225.9,324.1,228z"
         class="st0" /><path
         style="fill:#ed1d2b;fill-opacity:1"
         id="path176"
         d="M418.3,194.4c0,3.6,2.9,6.5,6.5,6.5c3.6,0,6.5-2.9,6.5-6.5c0-3.6-2.9-6.5-6.5-6.5   C421.2,187.9,418.3,190.8,418.3,194.4z"
         class="st0" /><path
         style="fill:#ed1d2b;fill-opacity:1"
         id="path178"
         d="M399.5,194.4c0,3.3,2.7,6,6,6s6-2.7,6-6c0-3.3-2.7-6-6-6S399.5,191.1,399.5,194.4z"
         class="st0" /><path
         style="fill:#ed1d2b;fill-opacity:1"
         id="path180"
         d="M380.6,194.4c0,3,2.4,5.4,5.4,5.4s5.4-2.4,5.4-5.4c0-3-2.4-5.4-5.4-5.4S380.6,191.4,380.6,194.4z"
         class="st0" /><path
         style="fill:#ed1d2b;fill-opacity:1"
         id="path182"
         d="M361.8,194.4c0,2.7,2.2,4.9,4.9,4.9c2.7,0,4.9-2.2,4.9-4.9c0-2.7-2.2-4.9-4.9-4.9   C364,189.5,361.8,191.7,361.8,194.4z"
         class="st0" /><path
         style="fill:#ed1d2b;fill-opacity:1"
         id="path184"
         d="M342.9,194.4c0,2.4,1.9,4.3,4.3,4.3c2.4,0,4.3-1.9,4.3-4.3s-1.9-4.3-4.3-4.3   C344.9,190.1,342.9,192,342.9,194.4z"
         class="st0" /><path
         style="fill:#ed1d2b;fill-opacity:1"
         id="path186"
         d="M437.1,160.8c0,3.9,3.2,7.1,7.1,7.1c3.9,0,7.1-3.2,7.1-7.1c0-3.9-3.2-7.1-7.1-7.1   C440.3,153.7,437.1,156.9,437.1,160.8z"
         class="st0" /><circle
         style="fill:#ed1d2b;fill-opacity:1"
         id="circle188"
         r="6.5"
         cy="160.8"
         cx="424.8"
         class="st0" /><path
         style="fill:#ed1d2b;fill-opacity:1"
         id="path190"
         d="M399.5,160.8c0,3.3,2.7,6,6,6s6-2.7,6-6c0-3.3-2.7-6-6-6S399.5,157.5,399.5,160.8z"
         class="st0" /><path
         style="fill:#ed1d2b;fill-opacity:1"
         id="path192"
         d="M380.6,160.8c0,3,2.4,5.4,5.4,5.4s5.4-2.4,5.4-5.4c0-3-2.4-5.4-5.4-5.4S380.6,157.8,380.6,160.8z"
         class="st0" /><path
         style="fill:#ed1d2b;fill-opacity:1"
         id="path194"
         d="M361.8,160.8c0,2.7,2.2,4.9,4.9,4.9c2.7,0,4.9-2.2,4.9-4.9c0-2.7-2.2-4.9-4.9-4.9   C364,155.9,361.8,158.1,361.8,160.8z"
         class="st0" /><circle
         style="fill:#ed1d2b;fill-opacity:1"
         id="circle196"
         r="4"
         cy="345.5"
         cx="337.6"
         class="st0" /><path
         style="fill:#ed1d2b;fill-opacity:1"
         id="path198"
         d="M314.7,345.5c0,1.9,1.6,3.5,3.5,3.5c1.9,0,3.5-1.6,3.5-3.5s-1.6-3.5-3.5-3.5   C316.2,342.1,314.7,343.6,314.7,345.5z"
         class="st0" /><path
         style="fill:#ed1d2b;fill-opacity:1"
         id="path200"
         d="M352.4,312c0,2.5,2.1,4.6,4.6,4.6c2.5,0,4.6-2.1,4.6-4.6s-2.1-4.6-4.6-4.6C354.4,307.4,352.4,309.4,352.4,312z   "
         class="st0" /><circle
         style="fill:#ed1d2b;fill-opacity:1"
         id="circle202"
         r="4"
         cy="312"
         cx="337.6"
         class="st0" /><path
         style="fill:#ed1d2b;fill-opacity:1"
         id="path204"
         d="M314.7,312c0,1.9,1.6,3.5,3.5,3.5c1.9,0,3.5-1.6,3.5-3.5s-1.6-3.5-3.5-3.5C316.2,308.5,314.7,310,314.7,312z"
         class="st0" /><path
         style="fill:#ed1d2b;fill-opacity:1"
         id="path206"
         d="M371.2,278.4c0,2.8,2.3,5.1,5.1,5.1c2.8,0,5.1-2.3,5.1-5.1c0-2.8-2.3-5.1-5.1-5.1   C373.5,273.2,371.2,275.5,371.2,278.4z"
         class="st0" /><path
         style="fill:#ed1d2b;fill-opacity:1"
         id="path208"
         d="M352.4,278.4c0,2.5,2.1,4.6,4.6,4.6c2.5,0,4.6-2.1,4.6-4.6s-2.1-4.6-4.6-4.6   C354.4,273.8,352.4,275.8,352.4,278.4z"
         class="st0" /><circle
         style="fill:#ed1d2b;fill-opacity:1"
         id="circle210"
         r="4"
         cy="278.4"
         cx="337.6"
         class="st0" /><path
         style="fill:#ed1d2b;fill-opacity:1"
         id="path212"
         d="M314.7,278.4c0,1.9,1.6,3.5,3.5,3.5c1.9,0,3.5-1.6,3.5-3.5s-1.6-3.5-3.5-3.5   C316.2,274.9,314.7,276.4,314.7,278.4z"
         class="st0" /><circle
         style="fill:#ed1d2b;fill-opacity:1"
         id="circle214"
         r="5.7"
         cy="244.8"
         cx="395.7"
         class="st0" /><path
         style="fill:#ed1d2b;fill-opacity:1"
         id="path216"
         d="M371.2,244.8c0,2.8,2.3,5.1,5.1,5.1c2.8,0,5.1-2.3,5.1-5.1s-2.3-5.1-5.1-5.1   C373.5,239.6,371.2,241.9,371.2,244.8z"
         class="st0" /><path
         style="fill:#ed1d2b;fill-opacity:1"
         id="path218"
         d="M352.4,244.8c0,2.5,2.1,4.6,4.6,4.6c2.5,0,4.6-2.1,4.6-4.6c0-2.5-2.1-4.6-4.6-4.6   C354.4,240.2,352.4,242.2,352.4,244.8z"
         class="st0" /><circle
         style="fill:#ed1d2b;fill-opacity:1"
         id="circle220"
         r="4"
         cy="244.8"
         cx="337.6"
         class="st0" /><path
         style="fill:#ed1d2b;fill-opacity:1"
         id="path222"
         d="M314.7,244.8c0,1.9,1.6,3.5,3.5,3.5c1.9,0,3.5-1.6,3.5-3.5c0-1.9-1.6-3.5-3.5-3.5   C316.2,241.3,314.7,242.8,314.7,244.8z"
         class="st0" /><path
         style="fill:#ed1d2b;fill-opacity:1"
         id="path224"
         d="M408.9,211.2c0,3.5,2.8,6.2,6.2,6.2s6.2-2.8,6.2-6.2s-2.8-6.2-6.2-6.2S408.9,207.7,408.9,211.2z"
         class="st0" /><circle
         style="fill:#ed1d2b;fill-opacity:1"
         id="circle226"
         r="5.7"
         cy="211.2"
         cx="395.7"
         class="st0" /><path
         style="fill:#ed1d2b;fill-opacity:1"
         id="path228"
         d="M371.2,211.2c0,2.8,2.3,5.1,5.1,5.1c2.8,0,5.1-2.3,5.1-5.1c0-2.8-2.3-5.1-5.1-5.1   C373.5,206,371.2,208.3,371.2,211.2z"
         class="st0" /><path
         style="fill:#ed1d2b;fill-opacity:1"
         id="path230"
         d="M352.4,211.2c0,2.5,2.1,4.6,4.6,4.6c2.5,0,4.6-2.1,4.6-4.6c0-2.5-2.1-4.6-4.6-4.6   C354.4,206.6,352.4,208.6,352.4,211.2z"
         class="st0" /><circle
         style="fill:#ed1d2b;fill-opacity:1"
         id="circle232"
         r="4"
         cy="211.2"
         cx="337.6"
         class="st0" /><circle
         style="fill:#ed1d2b;fill-opacity:1"
         id="circle234"
         r="6.8"
         cy="177.6"
         cx="434.5"
         class="st0" /><path
         style="fill:#ed1d2b;fill-opacity:1"
         id="path236"
         d="M408.9,177.6c0,3.5,2.8,6.2,6.2,6.2s6.2-2.8,6.2-6.2s-2.8-6.2-6.2-6.2S408.9,174.1,408.9,177.6z"
         class="st0" /><circle
         style="fill:#ed1d2b;fill-opacity:1"
         id="circle238"
         r="5.7"
         cy="177.6"
         cx="395.7"
         class="st0" /><path
         style="fill:#ed1d2b;fill-opacity:1"
         id="path240"
         d="M371.2,177.6c0,2.8,2.3,5.1,5.1,5.1c2.8,0,5.1-2.3,5.1-5.1c0-2.8-2.3-5.1-5.1-5.1   C373.5,172.5,371.2,174.8,371.2,177.6z"
         class="st0" /><path
         style="fill:#ed1d2b;fill-opacity:1"
         id="path242"
         d="M352.4,177.6c0,2.5,2.1,4.6,4.6,4.6c2.5,0,4.6-2.1,4.6-4.6c0-2.5-2.1-4.6-4.6-4.6   C354.4,173,352.4,175.1,352.4,177.6z"
         class="st0" /><circle
         style="fill:#ed1d2b;fill-opacity:1"
         id="circle244"
         r="7.4"
         cy="144"
         cx="453.9"
         class="st0" /><circle
         style="fill:#ed1d2b;fill-opacity:1"
         id="circle246"
         r="6.8"
         cy="144"
         cx="434.5"
         class="st0" /><path
         style="fill:#ed1d2b;fill-opacity:1"
         id="path248"
         d="M408.9,144c0,3.5,2.8,6.2,6.2,6.2s6.2-2.8,6.2-6.2s-2.8-6.2-6.2-6.2S408.9,140.6,408.9,144z"
         class="st0" /><circle
         style="fill:#ed1d2b;fill-opacity:1"
         id="circle250"
         r="5.7"
         cy="144"
         cx="395.7"
         class="st0" /><path
         style="fill:#ed1d2b;fill-opacity:1"
         id="path252"
         d="M371.2,144c0,2.8,2.3,5.1,5.1,5.1c2.8,0,5.1-2.3,5.1-5.1s-2.3-5.1-5.1-5.1C373.5,138.9,371.2,141.2,371.2,144z   "
         class="st0" /></g><g
       style="fill:#ed1d2b;fill-opacity:1"
       id="g270"><path
         style="fill:#ed1d2b;fill-opacity:1"
         id="path256"
         d="M654.7,211.1h100.6c1.8,0,3.3,1.5,3.3,3.3v17c0,1.8-1.5,3.3-3.3,3.3h-79v30.2h55.2c1.8,0,3.3,1.5,3.3,3.3v17   c0,1.8-1.5,3.3-3.3,3.3h-55.2v33.6h79c1.8,0,3.3,1.5,3.3,3.3v17c0,1.8-1.5,3.3-3.3,3.3H654.7c-1.8,0-3.3-1.5-3.3-3.3v-128   C651.4,212.6,652.9,211.1,654.7,211.1z"
         class="st1" /><path
         style="fill:#ed1d2b;fill-opacity:1"
         id="path258"
         d="M781.8,214.4c0-1.8,1.5-3.3,3.3-3.3h57.8c30,0,48.4,19.7,48.4,46.1c0,19.5-13.5,34.9-31.5,40.5l31.2,44.6   c1,1.4,0,3.4-1.8,3.4h-24.8c-1.5,0-2.8-0.7-3.6-1.9l-26.8-40.5h-27.4v39.2c0,1.8-1.5,3.3-3.3,3.3h-18.3c-1.8,0-3.3-1.5-3.3-3.3   V214.4z M806.7,279.6H841c17.6,0,25.5-10.5,25.5-22.5c0-12-7.9-22.5-25.5-22.5h-34.3V279.6z"
         class="st1" /><path
         style="fill:#ed1d2b;fill-opacity:1"
         id="path260"
         d="M1312.2,318.7c1.6,1.1,1.8,3.4,0.5,4.8c-14.8,17-34.8,24.9-55.1,24.9c-40.3,0-72.2-30.6-72.2-70   s31.9-70,72.2-70c20.4,0,40.3,7.9,55.2,24.9c1.2,1.4,1,3.6-0.5,4.8l-14.4,10.8c-1.9,1.4-4.5,1-6-0.8c-8.5-10.3-20.5-16.1-34.3-16.1   c-24.2,0-46.1,20.3-46.1,46.5s21.8,46.5,46.1,46.5c13.8,0,26.2-5.8,34.8-15.5c1.5-1.7,4-2,5.8-0.7L1312.2,318.7z"
         class="st1" /><path
         style="fill:#ed1d2b;fill-opacity:1"
         id="path262"
         d="M1078.4,263.1l78.3,81.5c0.6,0.6,1.5,1,2.4,1h4c1.2,0,2.2-1,2.2-2.2V214.4c0-1.8-1.5-3.3-3.3-3.3h-18.3   c-1.8,0-3.3,1.5-3.3,3.3v79.2l-78.3-81.5c-0.6-0.6-1.5-1-2.4-1h-4c-1.2,0-2.2,1-2.2,2.2v129.1c0,1.8,1.5,3.3,3.3,3.3h18.3   c1.8,0,3.3-1.5,3.3-3.3V263.1z"
         class="st1" /><path
         style="fill:#ed1d2b;fill-opacity:1"
         id="path264"
         d="M1336.2,211.1h100.6c1.8,0,3.3,1.5,3.3,3.3v17c0,1.8-1.5,3.3-3.3,3.3h-79v30.2h55.2c1.8,0,3.3,1.5,3.3,3.3v17   c0,1.8-1.5,3.3-3.3,3.3h-55.2v33.6h79c1.8,0,3.3,1.5,3.3,3.3v17c0,1.8-1.5,3.3-3.3,3.3h-100.6c-1.8,0-3.3-1.5-3.3-3.3v-128   C1332.9,212.6,1334.4,211.1,1336.2,211.1z"
         class="st1" /><path
         style="fill:#ed1d2b;fill-opacity:1"
         id="path266"
         d="M1014,345.6h20.3c1.6,0,2.6-1.6,2-3l-56.9-130.2c-0.3-0.8-1.1-1.3-2-1.3h-10.7c-0.9,0-1.6,0.5-2,1.3   l-56.9,130.2c-0.6,1.4,0.4,3,2,3h20.3c1.8,0,3.4-1.1,4-2.7l8.5-20.9h58.8l8.5,20.9C1010.6,344.5,1012.2,345.6,1014,345.6z    M952.3,298.5l19.8-48.6l19.8,48.6H952.3z"
         class="st1" /><path
         style="fill:#ed1d2b;fill-opacity:1"
         id="path268"
         d="M606.1,213.7l-37.7,85.9l-37.5-85.9c-0.7-1.6-2.3-2.6-4-2.6h-20.5c-1.6,0-2.6,1.7-2,3.1l62,133   c0.8,1.7,3.1,1.7,3.9,0l62-133c0.7-1.4-0.4-3.1-2-3.1h-20.3C608.3,211.1,606.8,212.1,606.1,213.7z"
         class="st1" /></g></g></svg>